EM.sfdir
StartChar: exclam
Encoding: 33 33 4
Width: 280
Flags: W
LayerCount: 2
Fore
SplineSet
199 424 m 1,0,-1
 170 158 l 1,1,-1
 109 158 l 1,2,-1
 82 422 l 1,3,-1
 82 584 l 1,4,-1
 199 584 l 1,5,-1
 199 424 l 1,0,-1
201 51 m 128,-1,7
 201 26 201 26 183.5 8 c 128,-1,8
 166 -10 166 -10 141 -10 c 128,-1,9
 116 -10 116 -10 99 8 c 128,-1,10
 82 26 82 26 82 51 c 128,-1,11
 82 76 82 76 99 93.5 c 128,-1,12
 116 111 116 111 141 111 c 128,-1,13
 166 111 166 111 183.5 93.5 c 128,-1,6
 201 76 201 76 201 51 c 128,-1,7
EndSplineSet
EndChar
StartChar: quotedbl
Encoding: 34 34 5
Width: 850
VWidth: 1747
Flags: W
LayerCount: 2
Fore
SplineSet
710 1000 m 1,0,-1
 677 597 l 1,1,-1
 544 597 l 1,2,-1
 514 1000 l 1,3,-1
 710 1000 l 1,0,-1
333 1000 m 1,4,-1
 300 597 l 1,5,-1
 171 597 l 1,6,-1
 140 1000 l 1,7,-1
 333 1000 l 1,4,-1
EndSplineSet
Validated: 1
EndChar
StartChar: numbersign
Encoding: 35 35 6
Width: 1074
VWidth: 1747
Flags: W
LayerCount: 2
Fore
SplineSet
974 737 m 1,0,-1
 954 580 l 1,1,-1
 800 580 l 1,2,-1
 776 437 l 1,3,-1
 933 437 l 1,4,-1
 908 283 l 1,5,-1
 754 283 l 1,6,-1
 710 0 l 1,7,-1
 524 0 l 1,8,-1
 573 283 l 1,9,-1
 430 283 l 1,10,-1
 384 0 l 1,11,-1
 210 0 l 1,12,-1
 256 283 l 1,13,-1
 97 283 l 1,14,-1
 123 437 l 1,15,-1
 276 437 l 1,16,-1
 300 580 l 1,17,-1
 147 580 l 1,18,-1
 171 737 l 1,19,-1
 324 737 l 1,20,-1
 363 1000 l 1,21,-1
 541 1000 l 1,22,-1
 500 737 l 1,23,-1
 647 737 l 1,24,-1
 688 1000 l 1,25,-1
 867 1000 l 1,26,-1
 824 737 l 1,27,-1
 974 737 l 1,0,-1
623 580 m 1,28,-1
 476 580 l 1,29,-1
 454 437 l 1,30,-1
 597 437 l 1,31,-1
 623 580 l 1,28,-1
EndSplineSet
EndChar
StartChar: dollar
Encoding: 36 36 7
Width: 1023
VWidth: 1747
Flags: W
LayerCount: 2
Fore
SplineSet
916 293 m 0,0,1
 916 215 916 215 877 146 c 128,-1,2
 838 77 838 77 773 39 c 1,3,4
 705 5 705 5 640 -3 c 1,5,-1
 640 -181 l 1,6,-1
 440 -181 l 1,7,-1
 440 -10 l 1,8,9
 304 7 304 7 206 73 c 1,10,11
 165 95 165 95 107 150 c 1,12,-1
 247 290 l 1,13,14
 310 232 310 232 374 206.5 c 128,-1,15
 438 181 438 181 524 181 c 0,16,17
 613 181 613 181 666.5 210 c 128,-1,18
 720 239 720 239 720 290 c 0,19,20
 720 312 720 312 707 337 c 128,-1,21
 694 362 694 362 674 374 c 0,22,23
 626 403 626 403 476 430 c 1,24,25
 328 464 328 464 266 503 c 1,26,27
 217 537 217 537 187 597 c 128,-1,28
 157 657 157 657 157 720 c 0,29,30
 157 795 157 795 194.5 860 c 128,-1,31
 232 925 232 925 297 964 c 0,32,33
 365 1005 365 1005 444 1010 c 1,34,-1
 444 1150 l 1,35,-1
 640 1150 l 1,36,-1
 640 1003 l 1,37,38
 732 983 732 983 807 937 c 1,39,40
 834 918 834 918 870 891 c 1,41,-1
 747 734 l 1,42,43
 640 814 640 814 500 814 c 0,44,45
 353 814 353 814 353 720 c 0,46,47
 353 672 353 672 391 657 c 1,48,49
 401 650 401 650 450 636 c 1,50,-1
 483 633 l 1,51,-1
 517 626 l 1,52,-1
 563 618 l 2,53,54
 916 552 916 552 916 293 c 0,0,1
EndSplineSet
EndChar
StartChar: ampersand
Encoding: 38 38 8
Width: 641
Flags: W
LayerCount: 2
Fore
SplineSet
582 0 m 1,0,-1
 451 0 l 1,1,-1
 406 55 l 1,2,3
 368 18 368 18 331 3 c 128,-1,4
 294 -12 294 -12 244 -12 c 0,5,6
 162 -12 162 -12 109.5 33.5 c 128,-1,7
 57 79 57 79 57 150 c 0,8,9
 57 197 57 197 86 246 c 1,10,11
 99 266 99 266 113.5 278 c 128,-1,12
 128 290 128 290 172 317 c 1,13,14
 178 323 178 323 184 326 c 1,15,16
 151 367 151 367 139 392.5 c 128,-1,17
 127 418 127 418 127 451 c 0,18,19
 127 511 127 511 172 551.5 c 128,-1,20
 217 592 217 592 283 592 c 0,21,22
 353 592 353 592 396.5 554.5 c 128,-1,23
 440 517 440 517 440 457 c 0,24,25
 440 411 440 411 412.5 371.5 c 128,-1,26
 385 332 385 332 336 307 c 1,27,-1
 406 217 l 1,28,29
 428 253 428 253 440 311 c 1,30,-1
 545 311 l 1,31,32
 539 254 539 254 523 214.5 c 128,-1,33
 507 175 507 175 475 135 c 1,34,-1
 582 0 l 1,0,-1
332 446 m 0,35,36
 332 470 332 470 319 485 c 128,-1,37
 306 500 306 500 285 500 c 0,38,39
 236 500 236 500 236 451 c 0,40,41
 236 426 236 426 248 414 c 1,42,-1
 279 379 l 1,43,44
 332 403 332 403 332 446 c 0,35,36
346 127 m 1,45,-1
 248 248 l 1,46,47
 174 204 174 204 174 158 c 0,48,49
 174 124 174 124 197 102 c 128,-1,50
 220 80 220 80 254 80 c 0,51,52
 302 80 302 80 346 127 c 1,45,-1
EndSplineSet
EndChar
StartChar: quotesingle
Encoding: 39 39 9
Width: 278
VWidth: 1747
Flags: W
LayerCount: 2
Fore
SplineSet
237 889 m 0,0,1
 237 788 237 788 167 718 c 1,2,-1
 97 746 l 1,3,4
 133 777 133 777 154 815 c 1,5,-1
 140 815 l 2,6,7
 102 815 102 815 70.5 842.5 c 128,-1,8
 39 870 39 870 39 909.5 c 128,-1,9
 39 949 39 949 70.5 976 c 128,-1,10
 102 1003 102 1003 143 1003 c 0,11,12
 189 1003 189 1003 217 966 c 1,13,14
 237 945 237 945 237 889 c 0,0,1
EndSplineSet
EndChar
StartChar: parenleft
Encoding: 40 40 10
Width: 516
VWidth: 1747
Flags: W
LayerCount: 2
Fore
SplineSet
479 0 m 1,0,-1
 280 0 l 1,1,2
 174 116 174 116 135.5 237 c 128,-1,3
 97 358 97 358 97 507 c 0,4,5
 97 659 97 659 140 772 c 128,-1,6
 183 885 183 885 280 1000 c 1,7,-1
 479 1000 l 1,8,9
 293 741 293 741 293 496 c 0,10,11
 293 263 293 263 479 0 c 1,0,-1
EndSplineSet
EndChar
StartChar: parenright
Encoding: 41 41 11
Width: 303
Flags: W
LayerCount: 2
Fore
SplineSet
246 297 m 0,0,1
 246 210 246 210 223.5 139 c 128,-1,2
 201 68 201 68 139 0 c 1,3,-1
 23 0 l 1,4,5
 131 147 131 147 131 291 c 128,-1,6
 131 435 131 435 23 586 c 1,7,-1
 139 586 l 1,8,9
 196 519 196 519 221 452.5 c 128,-1,10
 246 386 246 386 246 297 c 0,0,1
EndSplineSet
EndChar
StartChar: asterisk
Encoding: 42 42 12
Width: 419
Flags: W
LayerCount: 2
Fore
SplineSet
375 430 m 1,0,1
 322 414 322 414 297 410 c 1,2,3
 306 404 306 404 318.5 389.5 c 128,-1,4
 331 375 331 375 340 364 c 1,5,-1
 348 352 l 1,6,-1
 266 293 l 1,7,8
 229 331 229 331 213 356 c 1,9,10
 207 346 207 346 193 330 c 128,-1,11
 179 314 179 314 168 304 c 1,12,-1
 158 293 l 1,13,-1
 74 348 l 1,14,15
 102 392 102 392 125 410 c 1,16,-1
 47 430 l 1,17,-1
 76 526 l 1,18,19
 133 516 133 516 160 504 c 1,20,21
 157 516 157 516 156 536 c 128,-1,22
 155 556 155 556 156 570 c 1,23,-1
 156 584 l 1,24,-1
 268 584 l 1,25,26
 268 529 268 529 264 504 c 1,27,28
 275 508 275 508 295 513 c 128,-1,29
 315 518 315 518 330 521 c 2,30,-1
 344 524 l 1,31,-1
 375 430 l 1,0,1
EndSplineSet
EndChar
StartChar: plus
Encoding: 43 43 13
Width: 415
Flags: W
LayerCount: 2
Fore
SplineSet
397 242 m 1,0,-1
 264 242 l 1,1,-1
 264 113 l 1,2,-1
 150 113 l 1,3,-1
 150 242 l 1,4,-1
 18 242 l 1,5,-1
 18 358 l 1,6,-1
 150 358 l 1,7,-1
 150 483 l 1,8,-1
 264 483 l 1,9,-1
 264 358 l 1,10,-1
 397 358 l 1,11,-1
 397 242 l 1,0,-1
EndSplineSet
EndChar
StartChar: comma
Encoding: 44 44 14
Width: 163
Flags: W
LayerCount: 2
Fore
SplineSet
139 39 m 0,0,1
 139 -20 139 -20 98 -61 c 1,2,-1
 57 -45 l 1,3,4
 78 -27 78 -27 90 -4 c 1,5,-1
 82 -4 l 2,6,7
 60 -4 60 -4 41.5 12 c 128,-1,8
 23 28 23 28 23 51 c 128,-1,9
 23 74 23 74 41.5 90 c 128,-1,10
 60 106 60 106 84 106 c 0,11,12
 111 106 111 106 127 84 c 1,13,14
 139 72 139 72 139 39 c 0,0,1
EndSplineSet
EndChar
StartChar: hyphen
Encoding: 45 45 15
AltUni2: 0000ad.ffffffff.0
Width: 409
VWidth: 1747
Flags: W
LayerCount: 2
Fore
SplineSet
379 256 m 1,0,-1
 30 256 l 1,1,-1
 30 457 l 1,2,-1
 379 457 l 1,3,-1
 379 256 l 1,0,-1
EndSplineSet
Validated: 1
EndChar
StartChar: period
Encoding: 46 46 16
Width: 163
Flags: W
LayerCount: 2
Fore
SplineSet
139 49 m 128,-1,1
 139 24 139 24 123 7 c 128,-1,2
 107 -10 107 -10 82 -10 c 128,-1,3
 57 -10 57 -10 40 7 c 128,-1,4
 23 24 23 24 23 49 c 128,-1,5
 23 74 23 74 40 91.5 c 128,-1,6
 57 109 57 109 82 109 c 0,7,8
 106 109 106 109 122.5 91.5 c 128,-1,0
 139 74 139 74 139 49 c 128,-1,1
EndSplineSet
EndChar
StartChar: slash
Encoding: 47 47 17
Width: 455
Flags: W
LayerCount: 2
Fore
SplineSet
455 586 m 1,0,-1
 117 0 l 1,1,-1
 0 0 l 1,2,-1
 338 586 l 1,3,-1
 455 586 l 1,0,-1
EndSplineSet
Substitution2: "'frac' Diagonal Fractions in Latin lookup 1 subtable" fraction
EndChar
StartChar: zero
Encoding: 48 48 18
Width: 1033
VWidth: 1747
Flags: W
LayerCount: 2
Fore
SplineSet
933 500 m 0,0,1
 933 263 933 263 819.5 123 c 128,-1,2
 706 -17 706 -17 517 -17 c 0,3,4
 408 -17 408 -17 325 26.5 c 128,-1,5
 242 70 242 70 193.5 144 c 128,-1,6
 145 218 145 218 121 308 c 128,-1,7
 97 398 97 398 97 500 c 0,8,9
 97 735 97 735 209.5 874 c 128,-1,10
 322 1013 322 1013 517 1013 c 0,11,12
 700 1013 700 1013 816.5 871 c 128,-1,13
 933 729 933 729 933 500 c 0,0,1
737 503 m 0,14,15
 737 814 737 814 517 814 c 128,-1,16
 297 814 297 814 297 500 c 0,17,18
 297 348 297 348 354 264.5 c 128,-1,19
 411 181 411 181 517 181 c 0,20,21
 619 181 619 181 678 268 c 128,-1,22
 737 355 737 355 737 503 c 0,14,15
EndSplineSet
Substitution2: "'sinf' Scientific Inferiors in Latin lookup 0 subtable" uni2080
EndChar
StartChar: one
Encoding: 49 49 19
Width: 325
Flags: W
LayerCount: 2
Fore
SplineSet
246 0 m 1,0,-1
 127 0 l 1,1,-1
 127 397 l 1,2,-1
 70 397 l 1,3,-1
 70 516 l 1,4,5
 91 526 91 526 103 536.5 c 128,-1,6
 115 547 115 547 119 554.5 c 128,-1,7
 123 562 123 562 135 586 c 1,8,-1
 246 586 l 1,9,-1
 246 0 l 1,0,-1
EndSplineSet
Substitution2: "'sinf' Scientific Inferiors in Latin lookup 0 subtable" uni2081
EndChar
StartChar: two
Encoding: 50 50 20
Width: 1023
VWidth: 1747
Flags: W
LayerCount: 2
Fore
SplineSet
916 0 m 1,0,-1
 107 0 l 1,1,2
 116 126 116 126 147 210 c 1,3,4
 212 398 212 398 374 507 c 0,5,6
 422 539 422 539 510 577 c 2,7,-1
 549 594 l 1,8,-1
 583 604 l 1,9,-1
 618 618 l 1,10,11
 710 657 710 657 710 713 c 0,12,13
 710 757 710 757 655.5 785.5 c 128,-1,14
 601 814 601 814 514 814 c 0,15,16
 437 814 437 814 378 791.5 c 128,-1,17
 319 769 319 769 247 713 c 1,18,-1
 107 860 l 1,19,20
 196 927 196 927 251 950 c 1,21,22
 370 1013 370 1013 520 1013 c 0,23,24
 721 1013 721 1013 824 916 c 0,25,26
 904 841 904 841 904 720 c 0,27,28
 904 503 904 503 623 406 c 1,29,30
 536 374 536 374 502.5 355 c 128,-1,31
 469 336 469 336 430 297 c 0,32,33
 382 249 382 249 357 200 c 1,34,-1
 916 200 l 1,35,-1
 916 0 l 1,0,-1
EndSplineSet
Substitution2: "'sinf' Scientific Inferiors in Latin lookup 0 subtable" uni2082
EndChar
StartChar: three
Encoding: 51 51 21
Width: 953
VWidth: 1747
Flags: W
LayerCount: 2
Fore
SplineSet
856 293 m 0,0,1
 856 155 856 155 750.5 69 c 128,-1,2
 645 -17 645 -17 476 -17 c 0,3,4
 382 -17 382 -17 285 21.5 c 128,-1,5
 188 60 188 60 119 123 c 1,6,7
 75 167 75 167 49 203 c 1,8,-1
 210 314 l 1,9,10
 312 181 312 181 486 181 c 0,11,12
 566 181 566 181 613 212.5 c 128,-1,13
 660 244 660 244 660 297 c 0,14,15
 660 333 660 333 638 367 c 128,-1,16
 616 401 616 401 583 416 c 0,17,18
 542 436 542 436 486 437 c 2,19,-1
 457 437 l 1,20,-1
 457 636 l 1,21,-1
 510 636 l 2,22,23
 553 636 553 636 570 647 c 0,24,25
 611 671 611 671 611 717 c 0,26,27
 611 761 611 761 567.5 787.5 c 128,-1,28
 524 814 524 814 450 814 c 0,29,30
 329 814 329 814 241 730 c 1,31,-1
 97 860 l 1,32,33
 251 1014 251 1014 457 1013 c 0,34,35
 612 1013 612 1013 709.5 932 c 128,-1,36
 807 851 807 851 807 723 c 0,37,38
 807 610 807 610 730 534 c 1,39,40
 856 428 856 428 856 293 c 0,0,1
EndSplineSet
Substitution2: "'sinf' Scientific Inferiors in Latin lookup 0 subtable" uni2083
EndChar
StartChar: four
Encoding: 52 52 22
Width: 1100
VWidth: 1747
Flags: W
LayerCount: 2
Fore
SplineSet
960 220 m 1,0,-1
 809 220 l 1,1,-1
 809 0 l 1,2,-1
 613 0 l 1,3,-1
 613 220 l 1,4,-1
 30 220 l 1,5,-1
 30 406 l 1,6,-1
 613 1000 l 1,7,-1
 809 1000 l 1,8,-1
 809 406 l 1,9,-1
 960 406 l 1,10,-1
 960 220 l 1,0,-1
613 406 m 1,11,-1
 613 730 l 1,12,-1
 289 406 l 1,13,-1
 613 406 l 1,11,-1
EndSplineSet
Substitution2: "'sinf' Scientific Inferiors in Latin lookup 0 subtable" uni2084
EndChar
StartChar: five
Encoding: 53 53 23
Width: 600
Flags: W
LayerCount: 2
Fore
SplineSet
537 195 m 0,0,1
 537 152 537 152 517 109.5 c 128,-1,2
 497 67 497 67 463 39 c 1,3,4
 408 -10 408 -10 303 -10 c 0,5,6
 170 -10 170 -10 63 51 c 1,7,-1
 127 152 l 1,8,9
 209 106 209 106 303 106 c 0,10,11
 422 106 422 106 422 197 c 0,12,13
 422 285 422 285 301 285 c 0,14,15
 260 285 260 285 195 262 c 1,16,-1
 76 309 l 1,17,-1
 100 586 l 1,18,-1
 485 586 l 1,19,-1
 485 469 l 1,20,-1
 217 467 l 1,21,-1
 207 391 l 1,22,23
 259 401 259 401 303 401 c 0,24,25
 380 401 380 401 434 373 c 1,26,27
 482 345 482 345 509.5 297.5 c 128,-1,28
 537 250 537 250 537 195 c 0,0,1
EndSplineSet
Substitution2: "'sinf' Scientific Inferiors in Latin lookup 0 subtable" uni2085
EndChar
StartChar: six
Encoding: 54 54 24
Width: 587
Flags: W
LayerCount: 2
Fore
SplineSet
530 168 m 0,0,1
 530 88 530 88 467 39 c 128,-1,2
 404 -10 404 -10 301 -10 c 0,3,4
 247 -10 247 -10 198 7 c 128,-1,5
 149 24 149 24 121 53 c 0,6,7
 57 117 57 117 57 238 c 0,8,9
 57 325 57 325 98 402 c 128,-1,10
 139 479 139 479 211 530 c 0,11,12
 302 594 302 594 424 594 c 2,13,-1
 440 594 l 1,14,-1
 440 477 l 1,15,-1
 426 477 l 2,16,17
 261 477 261 477 193 332 c 1,18,19
 252 348 252 348 301 348 c 0,20,21
 382 348 382 348 446 315 c 1,22,23
 485 291 485 291 507.5 252 c 128,-1,24
 530 213 530 213 530 168 c 0,0,1
416 170 m 0,25,26
 416 198 416 198 387.5 214.5 c 128,-1,27
 359 231 359 231 307 231 c 0,28,29
 249 231 249 231 225 219 c 1,30,31
 184 204 184 204 184 170 c 0,32,33
 184 141 184 141 217.5 123.5 c 128,-1,34
 251 106 251 106 305 106 c 0,35,36
 356 106 356 106 386 123.5 c 128,-1,37
 416 141 416 141 416 170 c 0,25,26
EndSplineSet
Substitution2: "'sinf' Scientific Inferiors in Latin lookup 0 subtable" uni2086
EndChar
StartChar: seven
Encoding: 55 55 25
Width: 967
VWidth: 1747
Flags: W
LayerCount: 2
Fore
SplineSet
867 793 m 1,0,1
 751 677 751 677 677 534 c 0,2,3
 544 268 544 268 544 0 c 1,4,-1
 346 0 l 1,5,6
 346 435 346 435 601 800 c 1,7,-1
 60 800 l 1,8,-1
 60 996 l 1,9,-1
 867 996 l 1,10,-1
 867 793 l 1,0,1
EndSplineSet
Validated: 1
Substitution2: "'sinf' Scientific Inferiors in Latin lookup 0 subtable" uni2087
EndChar
StartChar: eight
Encoding: 56 56 26
Width: 1007
VWidth: 1747
Flags: W
LayerCount: 2
Fore
SplineSet
907 314 m 0,0,1
 907 164 907 164 793 70 c 0,2,3
 689 -17 689 -17 510 -17 c 0,4,5
 281 -17 281 -17 177 107 c 0,6,7
 100 199 100 199 100 314 c 0,8,9
 100 454 100 454 206 549 c 1,10,11
 133 622 133 622 133 730 c 0,12,13
 133 860 133 860 238 936.5 c 128,-1,14
 343 1013 343 1013 510 1013 c 128,-1,15
 677 1013 677 1013 777 936.5 c 128,-1,16
 877 860 877 860 877 730 c 0,17,18
 877 629 877 629 807 549 c 1,19,20
 907 459 907 459 907 314 c 0,0,1
680 734 m 0,21,22
 680 772 680 772 634 793 c 128,-1,23
 588 814 588 814 509.5 814 c 128,-1,24
 431 814 431 814 381.5 791.5 c 128,-1,25
 332 769 332 769 332 734 c 0,26,27
 332 695 332 695 381 672.5 c 128,-1,28
 430 650 430 650 510 650 c 0,29,30
 588 650 588 650 634 672.5 c 128,-1,31
 680 695 680 695 680 734 c 0,21,22
713 314 m 0,32,33
 713 447 713 447 510 447 c 0,34,35
 411 447 411 447 355.5 413 c 128,-1,36
 300 379 300 379 300 314 c 0,37,38
 300 251 300 251 356 216 c 128,-1,39
 412 181 412 181 510 181 c 0,40,41
 609 181 609 181 661 216 c 128,-1,42
 713 251 713 251 713 314 c 0,32,33
EndSplineSet
Substitution2: "'sinf' Scientific Inferiors in Latin lookup 0 subtable" uni2088
EndChar
StartChar: nine
Encoding: 57 57 27
Width: 587
Flags: W
LayerCount: 2
Fore
SplineSet
530 346 m 0,0,1
 530 257 530 257 491.5 180.5 c 128,-1,2
 453 104 453 104 381 55 c 1,3,4
 281 -10 281 -10 162 -10 c 2,5,-1
 145 -10 l 1,6,-1
 145 109 l 1,7,8
 154 106 154 106 160 106 c 0,9,10
 244 106 244 106 308 147 c 128,-1,11
 372 188 372 188 406 262 c 1,12,13
 343 238 343 238 293 238 c 0,14,15
 192 238 192 238 127 281 c 1,16,17
 96 303 96 303 76.5 340.5 c 128,-1,18
 57 378 57 378 57 416 c 0,19,20
 57 495 57 495 122.5 544.5 c 128,-1,21
 188 594 188 594 293 594 c 0,22,23
 412 594 412 594 473 530 c 1,24,25
 530 473 530 473 530 346 c 0,0,1
403 418 m 0,26,27
 403 446 403 446 373.5 462.5 c 128,-1,28
 344 479 344 479 289 479 c 0,29,30
 237 479 237 479 206.5 462 c 128,-1,31
 176 445 176 445 176 416 c 0,32,33
 176 356 176 356 289 356 c 0,34,35
 403 356 403 356 403 418 c 0,26,27
EndSplineSet
Substitution2: "'sinf' Scientific Inferiors in Latin lookup 0 subtable" uni2089
EndChar
StartChar: colon
Encoding: 58 58 28
Width: 210
Flags: W
LayerCount: 2
Fore
SplineSet
168 309 m 0,0,1
 168 282 168 282 150 264 c 128,-1,2
 132 246 132 246 104 246 c 0,3,4
 78 246 78 246 59.5 264.5 c 128,-1,5
 41 283 41 283 41 309 c 128,-1,6
 41 335 41 335 59.5 354 c 128,-1,7
 78 373 78 373 104 373 c 128,-1,8
 130 373 130 373 149 354 c 128,-1,9
 168 335 168 335 168 309 c 0,0,1
168 53 m 0,10,11
 168 26 168 26 150 8 c 128,-1,12
 132 -10 132 -10 104 -10 c 0,13,14
 78 -10 78 -10 59.5 8.5 c 128,-1,15
 41 27 41 27 41 53 c 128,-1,16
 41 79 41 79 59.5 98 c 128,-1,17
 78 117 78 117 104 117 c 128,-1,18
 130 117 130 117 149 98 c 128,-1,19
 168 79 168 79 168 53 c 0,10,11
EndSplineSet
EndChar
StartChar: equal
Encoding: 61 61 29
Width: 415
Flags: W
LayerCount: 2
Fore
SplineSet
397 328 m 1,0,-1
 18 328 l 1,1,-1
 18 444 l 1,2,-1
 397 444 l 1,3,-1
 397 328 l 1,0,-1
397 152 m 1,4,-1
 18 152 l 1,5,-1
 18 268 l 1,6,-1
 397 268 l 1,7,-1
 397 152 l 1,4,-1
EndSplineSet
EndChar
StartChar: question
Encoding: 63 63 30
Width: 481
Flags: W
LayerCount: 2
Fore
SplineSet
440 432 m 0,0,1
 440 384 440 384 418.5 352 c 128,-1,2
 397 320 397 320 334 274 c 1,3,4
 307 253 307 253 298 242 c 128,-1,5
 289 231 289 231 283 211 c 0,6,7
 278 191 278 191 276 158 c 1,8,-1
 174 158 l 1,9,10
 177 224 177 224 188 250 c 1,11,12
 196 275 196 275 223 299 c 0,13,14
 226 302 226 302 233 308 c 128,-1,15
 240 314 240 314 250 322 c 2,16,-1
 272 340 l 1,17,18
 324 386 324 386 324 426 c 0,19,20
 324 449 324 449 302.5 463 c 128,-1,21
 281 477 281 477 246 477 c 0,22,23
 202 477 202 477 181.5 458 c 128,-1,24
 161 439 161 439 158 397 c 1,25,-1
 41 397 l 1,26,27
 44 475 44 475 78 520 c 1,28,29
 131 594 131 594 244 594 c 0,30,31
 332 594 332 594 386 549 c 128,-1,32
 440 504 440 504 440 432 c 0,0,1
168 49 m 128,-1,34
 168 74 168 74 185 91.5 c 128,-1,35
 202 109 202 109 227 109 c 128,-1,36
 252 109 252 109 268.5 91.5 c 128,-1,37
 285 74 285 74 285 49 c 128,-1,38
 285 24 285 24 268.5 7 c 128,-1,39
 252 -10 252 -10 227 -10 c 128,-1,40
 202 -10 202 -10 185 7 c 128,-1,33
 168 24 168 24 168 49 c 128,-1,34
EndSplineSet
EndChar
StartChar: at
Encoding: 64 64 31
Width: 702
Flags: W
LayerCount: 2
Fore
SplineSet
643 332 m 0,0,1
 643 251 643 251 597.5 187 c 128,-1,2
 552 123 552 123 489 123 c 0,3,4
 445 123 445 123 424 158 c 1,5,6
 383 117 383 117 326 117 c 0,7,8
 268 117 268 117 230.5 159.5 c 128,-1,9
 193 202 193 202 193 266 c 0,10,11
 193 341 193 341 240.5 396 c 128,-1,12
 288 451 288 451 356 451 c 0,13,14
 403 451 403 451 434 420 c 1,15,-1
 438 440 l 1,16,-1
 524 440 l 1,17,-1
 489 252 l 2,18,19
 483 222 483 222 483 217 c 0,20,21
 483 199 483 199 494 199 c 0,22,23
 517 199 517 199 540 238 c 128,-1,24
 563 277 563 277 563 330 c 0,25,26
 563 412 563 412 509 463 c 128,-1,27
 455 514 455 514 365 514 c 0,28,29
 266 514 266 514 204.5 452 c 128,-1,30
 143 390 143 390 143 291 c 0,31,32
 143 196 143 196 205 131 c 0,33,34
 263 70 263 70 369 70 c 0,35,36
 458 70 458 70 547 109 c 1,37,-1
 569 29 l 1,38,39
 473 -12 473 -12 369 -12 c 0,40,41
 234 -12 234 -12 147 72 c 0,42,43
 57 159 57 159 57 293 c 0,44,45
 57 426 57 426 142 510 c 128,-1,46
 227 594 227 594 360 594 c 0,47,48
 483 594 483 594 563 520.5 c 128,-1,49
 643 447 643 447 643 332 c 0,0,1
410 303 m 0,50,51
 410 330 410 330 396 345 c 128,-1,52
 382 360 382 360 360 360 c 0,53,54
 332 360 332 360 309.5 333 c 128,-1,55
 287 306 287 306 287 268 c 0,56,57
 287 238 287 238 301 221.5 c 128,-1,58
 315 205 315 205 338 205 c 0,59,60
 367 205 367 205 388.5 232.5 c 128,-1,61
 410 260 410 260 410 303 c 0,50,51
EndSplineSet
EndChar
StartChar: A
Encoding: 65 65 32
Width: 638
Flags: W
LayerCount: 2
Fore
SplineSet
614 0 m 1,0,-1
 489 0 l 1,1,-1
 434 137 l 1,2,-1
 203 137 l 1,3,-1
 147 0 l 1,4,-1
 23 0 l 1,5,-1
 258 586 l 1,6,-1
 379 586 l 1,7,-1
 614 0 l 1,0,-1
387 254 m 1,8,-1
 322 418 l 1,9,-1
 250 254 l 1,10,-1
 387 254 l 1,8,-1
EndSplineSet
EndChar
StartChar: B
Encoding: 66 66 33
Width: 600
Flags: W
LayerCount: 2
Fore
SplineSet
553 174 m 0,0,1
 553 127 553 127 530 86.5 c 128,-1,2
 507 46 507 46 467 23 c 1,3,4
 423 0 423 0 381 0 c 2,5,-1
 354 0 l 1,6,-1
 82 0 l 1,7,-1
 82 586 l 1,8,-1
 354 586 l 2,9,10
 392 586 392 586 411.5 581.5 c 128,-1,11
 431 577 431 577 455 563 c 0,12,13
 492 543 492 543 513.5 505 c 128,-1,14
 535 467 535 467 535 424 c 0,15,16
 535 356 535 356 487 311 c 1,17,18
 553 257 553 257 553 174 c 0,0,1
420 424 m 0,19,20
 420 469 420 469 367 469 c 2,21,-1
 197 469 l 1,22,-1
 197 369 l 1,23,-1
 356 369 l 2,24,25
 384 369 384 369 402 385 c 128,-1,26
 420 401 420 401 420 424 c 0,19,20
438 174 m 0,27,28
 438 225 438 225 399 244 c 0,29,30
 383 252 383 252 354 252 c 2,31,-1
 197 252 l 1,32,-1
 197 117 l 1,33,-1
 371 117 l 2,34,35
 403 117 403 117 420.5 132 c 128,-1,36
 438 147 438 147 438 174 c 0,27,28
EndSplineSet
EndChar
StartChar: C
Encoding: 67 67 34
Width: 577
Flags: W
LayerCount: 2
Fore
SplineSet
530 119 m 1,0,1
 450 -10 450 -10 311 -10 c 0,2,3
 230 -10 230 -10 170.5 34.5 c 128,-1,4
 111 79 111 79 84 146 c 128,-1,5
 57 213 57 213 57 293 c 0,6,7
 57 428 57 428 128 511 c 128,-1,8
 199 594 199 594 315 594 c 0,9,10
 384 594 384 594 441.5 560.5 c 128,-1,11
 499 527 499 527 530 467 c 1,12,-1
 428 412 l 1,13,14
 389 477 389 477 311 477 c 0,15,16
 248 477 248 477 211 427.5 c 128,-1,17
 174 378 174 378 174 293 c 0,18,19
 174 207 174 207 211 156.5 c 128,-1,20
 248 106 248 106 311 106 c 0,21,22
 387 106 387 106 428 174 c 1,23,-1
 530 119 l 1,0,1
EndSplineSet
EndChar
StartChar: D
Encoding: 68 68 35
Width: 1043
VWidth: 1747
Flags: W
LayerCount: 2
Fore
SplineSet
943 500 m 0,0,1
 943 273 943 273 808.5 136.5 c 128,-1,2
 674 0 674 0 450 0 c 2,3,-1
 140 0 l 1,4,-1
 140 1000 l 1,5,-1
 450 1000 l 2,6,7
 675 1000 675 1000 809 862.5 c 128,-1,8
 943 725 943 725 943 500 c 0,0,1
747 499.5 m 128,-1,10
 747 641 747 641 670.5 720.5 c 128,-1,11
 594 800 594 800 461 800 c 2,12,-1
 336 800 l 1,13,-1
 336 200 l 1,14,-1
 461 200 l 2,15,16
 594 200 594 200 670.5 279 c 128,-1,9
 747 358 747 358 747 499.5 c 128,-1,10
EndSplineSet
EndChar
StartChar: E
Encoding: 69 69 36
Width: 557
Flags: W
LayerCount: 2
Fore
SplineSet
516 0 m 1,0,-1
 82 0 l 1,1,-1
 82 586 l 1,2,-1
 508 586 l 1,3,-1
 508 469 l 1,4,-1
 197 469 l 1,5,-1
 197 373 l 1,6,-1
 373 373 l 1,7,-1
 373 256 l 1,8,-1
 197 256 l 1,9,-1
 197 117 l 1,10,-1
 516 117 l 1,11,-1
 516 0 l 1,0,-1
EndSplineSet
EndChar
StartChar: F
Encoding: 70 70 37
Width: 557
Flags: W
LayerCount: 2
Fore
SplineSet
516 469 m 1,0,-1
 197 469 l 1,1,-1
 197 365 l 1,2,-1
 385 365 l 1,3,-1
 385 248 l 1,4,-1
 197 248 l 1,5,-1
 197 0 l 1,6,-1
 82 0 l 1,7,-1
 82 586 l 1,8,-1
 516 586 l 1,9,-1
 516 469 l 1,0,-1
EndSplineSet
EndChar
StartChar: G
Encoding: 71 71 38
Width: 587
Flags: W
LayerCount: 2
Fore
SplineSet
530 293 m 1,0,1
 514 -10 514 -10 297 -10 c 0,2,3
 216 -10 216 -10 160 35 c 128,-1,4
 104 80 104 80 80.5 146.5 c 128,-1,5
 57 213 57 213 57 293 c 128,-1,6
 57 373 57 373 80.5 439 c 128,-1,7
 104 505 104 505 160 549.5 c 128,-1,8
 216 594 216 594 297 594 c 0,9,10
 370 594 370 594 425 555.5 c 128,-1,11
 480 517 480 517 508 449 c 1,12,-1
 399 408 l 1,13,14
 371 477 371 477 297 477 c 0,15,16
 250 477 250 477 221.5 446.5 c 128,-1,17
 193 416 193 416 184.5 378.5 c 128,-1,18
 176 341 176 341 176 293 c 0,19,20
 176 258 176 258 181 228 c 128,-1,21
 186 198 186 198 198.5 169 c 128,-1,22
 211 140 211 140 236 123 c 128,-1,23
 261 106 261 106 297 106 c 0,24,25
 368 106 368 106 399 176 c 1,26,-1
 330 176 l 1,27,-1
 330 293 l 1,28,-1
 530 293 l 1,0,1
EndSplineSet
EndChar
StartChar: H
Encoding: 72 72 39
Width: 634
Flags: W
LayerCount: 2
Fore
SplineSet
553 0 m 1,0,-1
 438 0 l 1,1,-1
 438 256 l 1,2,-1
 197 256 l 1,3,-1
 197 0 l 1,4,-1
 82 0 l 1,5,-1
 82 584 l 1,6,-1
 197 584 l 1,7,-1
 197 373 l 1,8,-1
 438 373 l 1,9,-1
 438 584 l 1,10,-1
 553 584 l 1,11,-1
 553 0 l 1,0,-1
EndSplineSet
EndChar
StartChar: I
Encoding: 73 73 40
Width: 280
Flags: W
LayerCount: 2
Fore
SplineSet
199 0 m 1,0,-1
 82 0 l 1,1,-1
 82 586 l 1,2,-1
 199 586 l 1,3,-1
 199 0 l 1,0,-1
EndSplineSet
EndChar
StartChar: J
Encoding: 74 74 41
Width: 938
VWidth: 1747
Flags: W
LayerCount: 2
Fore
SplineSet
798 430 m 2,0,1
 798 270 798 270 752 171 c 1,2,3
 709 89 709 89 615 36 c 128,-1,4
 521 -17 521 -17 417 -17 c 0,5,6
 286 -17 286 -17 185.5 59 c 128,-1,7
 85 135 85 135 40 266 c 1,8,-1
 231 317 l 1,9,10
 251 254 251 254 301.5 217.5 c 128,-1,11
 352 181 352 181 417 181 c 0,12,13
 470 181 470 181 518 207.5 c 128,-1,14
 566 234 566 234 581 273 c 1,15,16
 601 314 601 314 602 409 c 2,17,-1
 602 996 l 1,18,-1
 798 996 l 1,19,-1
 798 430 l 2,0,1
EndSplineSet
Validated: 1
EndChar
StartChar: K
Encoding: 75 75 42
Width: 573
Flags: W
LayerCount: 2
Fore
SplineSet
563 0 m 1,0,-1
 434 0 l 1,1,-1
 299 291 l 1,2,-1
 197 166 l 1,3,-1
 197 0 l 1,4,-1
 82 0 l 1,5,-1
 82 586 l 1,6,-1
 197 586 l 1,7,-1
 197 354 l 1,8,-1
 381 586 l 1,9,-1
 526 586 l 1,10,-1
 379 393 l 1,11,-1
 563 0 l 1,0,-1
EndSplineSet
EndChar
StartChar: L
Encoding: 76 76 43
Width: 526
Flags: W
LayerCount: 2
Fore
SplineSet
516 0 m 1,0,-1
 82 0 l 1,1,-1
 82 586 l 1,2,-1
 197 586 l 1,3,-1
 197 111 l 1,4,-1
 516 111 l 1,5,-1
 516 0 l 1,0,-1
EndSplineSet
EndChar
StartChar: M
Encoding: 77 77 44
Width: 1210
VWidth: 1747
Flags: W
LayerCount: 2
Fore
SplineSet
1070 0 m 1,0,-1
 874 0 l 1,1,-1
 874 541 l 1,2,-1
 607 0 l 1,3,-1
 336 541 l 1,4,-1
 336 0 l 1,5,-1
 140 0 l 1,6,-1
 140 1000 l 1,7,-1
 336 1000 l 1,8,-1
 607 450 l 1,9,-1
 874 1000 l 1,10,-1
 1070 1000 l 1,11,-1
 1070 0 l 1,0,-1
EndSplineSet
EndChar
StartChar: N
Encoding: 78 78 45
Width: 634
Flags: W
LayerCount: 2
Fore
SplineSet
553 0 m 1,0,-1
 453 0 l 1,1,-1
 197 375 l 1,2,-1
 197 0 l 1,3,-1
 82 0 l 1,4,-1
 82 586 l 1,5,-1
 197 586 l 1,6,-1
 438 227 l 1,7,-1
 438 586 l 1,8,-1
 553 586 l 1,9,-1
 553 0 l 1,0,-1
EndSplineSet
EndChar
StartChar: O
Encoding: 79 79 46
Width: 1036
VWidth: 1747
Flags: W
LayerCount: 2
Fore
SplineSet
936 500 m 0,0,1
 936 263 936 263 822.5 123 c 128,-1,2
 709 -17 709 -17 520 -17 c 0,3,4
 411 -17 411 -17 328 26.5 c 128,-1,5
 245 70 245 70 196.5 144 c 128,-1,6
 148 218 148 218 124 308 c 128,-1,7
 100 398 100 398 100 500 c 0,8,9
 100 735 100 735 212.5 874 c 128,-1,10
 325 1013 325 1013 520 1013 c 0,11,12
 703 1013 703 1013 819.5 871 c 128,-1,13
 936 729 936 729 936 500 c 0,0,1
740 503 m 0,14,15
 740 814 740 814 520 814 c 128,-1,16
 300 814 300 814 300 500 c 0,17,18
 300 348 300 348 357 264.5 c 128,-1,19
 414 181 414 181 520 181 c 0,20,21
 622 181 622 181 681 268 c 128,-1,22
 740 355 740 355 740 503 c 0,14,15
EndSplineSet
EndChar
StartChar: P
Encoding: 80 80 47
Width: 577
Flags: W
LayerCount: 2
Fore
SplineSet
553 403 m 0,0,1
 553 352 553 352 529 309.5 c 128,-1,2
 505 267 505 267 463 244 c 1,3,4
 414 219 414 219 350 219 c 2,5,-1
 197 219 l 1,6,-1
 197 0 l 1,7,-1
 82 0 l 1,8,-1
 82 586 l 1,9,-1
 356 586 l 2,10,11
 417 586 417 586 463 561 c 1,12,13
 505 536 505 536 529 494 c 128,-1,14
 553 452 553 452 553 403 c 0,0,1
438 403 m 0,15,16
 438 431 438 431 417.5 450 c 128,-1,17
 397 469 397 469 365 469 c 2,18,-1
 197 469 l 1,19,-1
 197 336 l 1,20,-1
 365 336 l 2,21,22
 399 336 399 336 418.5 354 c 128,-1,23
 438 372 438 372 438 403 c 0,15,16
EndSplineSet
EndChar
StartChar: Q
Encoding: 81 81 48
Width: 606
Flags: W
LayerCount: 2
Fore
SplineSet
547 295 m 0,0,1
 547 153 547 153 473 66 c 1,2,-1
 504 23 l 1,3,-1
 420 -37 l 1,4,-1
 389 8 l 1,5,6
 345 -10 345 -10 303 -10 c 0,7,8
 239 -10 239 -10 190 15.5 c 128,-1,9
 141 41 141 41 113 84.5 c 128,-1,10
 85 128 85 128 71 180.5 c 128,-1,11
 57 233 57 233 57 293 c 0,12,13
 57 429 57 429 124.5 511.5 c 128,-1,14
 192 594 192 594 303 594 c 0,15,16
 412 594 412 594 479.5 512.5 c 128,-1,17
 547 431 547 431 547 295 c 0,0,1
432 295 m 0,18,19
 432 383 432 383 398.5 430 c 128,-1,20
 365 477 365 477 303 477 c 0,21,22
 174 477 174 477 174 293 c 0,23,24
 174 204 174 204 208 154 c 128,-1,25
 242 104 242 104 303 104 c 0,26,27
 306 104 306 104 311 106 c 128,-1,28
 316 108 316 108 319 109 c 1,29,-1
 287 156 l 1,30,-1
 369 213 l 1,31,-1
 403 166 l 1,32,33
 432 222 432 222 432 295 c 0,18,19
EndSplineSet
EndChar
StartChar: R
Encoding: 82 82 49
Width: 593
Flags: W
LayerCount: 2
Fore
SplineSet
553 0 m 1,0,-1
 430 0 l 1,1,-1
 350 219 l 1,2,-1
 197 219 l 1,3,-1
 197 0 l 1,4,-1
 82 0 l 1,5,-1
 82 586 l 1,6,-1
 346 586 l 2,7,8
 407 586 407 586 453 561 c 1,9,10
 496 536 496 536 520.5 494 c 128,-1,11
 545 452 545 452 545 403 c 0,12,13
 545 356 545 356 523 315 c 128,-1,14
 501 274 501 274 461 248 c 1,15,-1
 553 0 l 1,0,-1
430 403 m 0,16,17
 430 431 430 431 409 450 c 128,-1,18
 388 469 388 469 356 469 c 2,19,-1
 197 469 l 1,20,-1
 197 336 l 1,21,-1
 356 336 l 2,22,23
 389 336 389 336 409.5 354.5 c 128,-1,24
 430 373 430 373 430 403 c 0,16,17
EndSplineSet
EndChar
StartChar: S
Encoding: 83 83 50
Width: 600
Flags: W
LayerCount: 2
Fore
SplineSet
537 172 m 0,0,1
 537 126 537 126 514 85.5 c 128,-1,2
 491 45 491 45 453 23 c 0,3,4
 395 -10 395 -10 301 -10 c 0,5,6
 198 -10 198 -10 121 43 c 1,7,8
 97 56 97 56 63 88 c 1,9,-1
 145 170 l 1,10,11
 182 136 182 136 219.5 121 c 128,-1,12
 257 106 257 106 307 106 c 0,13,14
 359 106 359 106 390.5 123 c 128,-1,15
 422 140 422 140 422 170 c 0,16,17
 422 183 422 183 414.5 197.5 c 128,-1,18
 407 212 407 212 395 219 c 0,19,20
 367 236 367 236 279 252 c 1,21,22
 192 272 192 272 156 295 c 1,23,24
 127 315 127 315 109.5 350 c 128,-1,25
 92 385 92 385 92 422 c 0,26,27
 92 466 92 466 114 504 c 128,-1,28
 136 542 136 542 174 565 c 0,29,30
 222 594 222 594 297 594 c 0,31,32
 402 594 402 594 473 549 c 0,33,34
 489 538 489 538 510 522 c 1,35,-1
 438 430 l 1,36,37
 375 477 375 477 293 477 c 0,38,39
 207 477 207 477 207 422 c 0,40,41
 207 394 207 394 229 385 c 0,42,43
 230 384 230 384 264 373 c 1,44,-1
 283 371 l 1,45,-1
 303 367 l 1,46,-1
 330 362 l 2,47,48
 537 324 537 324 537 172 c 0,0,1
EndSplineSet
EndChar
StartChar: T
Encoding: 84 84 51
Width: 481
Flags: W
LayerCount: 2
Fore
SplineSet
457 469 m 1,0,-1
 297 469 l 1,1,-1
 297 0 l 1,2,-1
 184 0 l 1,3,-1
 184 469 l 1,4,-1
 23 469 l 1,5,-1
 23 586 l 1,6,-1
 457 586 l 1,7,-1
 457 469 l 1,0,-1
EndSplineSet
EndChar
StartChar: U
Encoding: 85 85 52
Width: 634
Flags: W
LayerCount: 2
Fore
SplineSet
553 240 m 2,0,1
 553 161 553 161 522 106 c 0,2,3
 493 53 493 53 439 21.5 c 128,-1,4
 385 -10 385 -10 322 -10 c 0,5,6
 226 -10 226 -10 154 58 c 128,-1,7
 82 126 82 126 82 219 c 2,8,-1
 82 240 l 1,9,-1
 82 586 l 1,10,-1
 197 586 l 1,11,-1
 197 240 l 1,12,-1
 197 223 l 2,13,14
 197 176 197 176 234 141 c 128,-1,15
 271 106 271 106 319 106 c 0,16,17
 352 106 352 106 380.5 122.5 c 128,-1,18
 409 139 409 139 424 166 c 0,19,20
 438 193 438 193 438 240 c 2,21,-1
 438 586 l 1,22,-1
 553 586 l 1,23,-1
 553 240 l 2,0,1
EndSplineSet
EndChar
StartChar: V
Encoding: 86 86 53
Width: 583
Flags: W
LayerCount: 2
Fore
SplineSet
559 586 m 1,0,-1
 356 0 l 1,1,-1
 233 0 l 1,2,-1
 23 586 l 1,3,-1
 145 586 l 1,4,-1
 295 174 l 1,5,-1
 438 586 l 1,6,-1
 559 586 l 1,0,-1
EndSplineSet
EndChar
StartChar: W
Encoding: 87 87 54
Width: 1138
VWidth: 1747
Flags: W
LayerCount: 2
Fore
SplineSet
1098 1000 m 1,0,-1
 941 0 l 1,1,-1
 731 0 l 1,2,-1
 578 597 l 1,3,-1
 407 0 l 1,4,-1
 197 0 l 1,5,-1
 40 1000 l 1,6,-1
 238 1000 l 1,7,-1
 325 461 l 1,8,-1
 465 1000 l 1,9,-1
 675 1000 l 1,10,-1
 815 461 l 1,11,-1
 898 1000 l 1,12,-1
 1098 1000 l 1,0,-1
EndSplineSet
Validated: 1
EndChar
StartChar: X
Encoding: 88 88 55
Width: 591
Flags: W
LayerCount: 2
Fore
SplineSet
551 0 m 1,0,-1
 414 -2 l 1,1,-1
 297 195 l 1,2,-1
 176 0 l 1,3,-1
 41 0 l 1,4,-1
 225 307 l 1,5,-1
 57 584 l 1,6,-1
 195 584 l 1,7,-1
 297 418 l 1,8,-1
 395 584 l 1,9,-1
 535 584 l 1,10,-1
 369 305 l 1,11,-1
 551 0 l 1,0,-1
EndSplineSet
EndChar
StartChar: Y
Encoding: 89 89 56
Width: 1088
VWidth: 1747
Flags: W
LayerCount: 2
Fore
SplineSet
1048 1000 m 1,0,-1
 647 406 l 1,1,-1
 647 0 l 1,2,-1
 447 0 l 1,3,-1
 447 406 l 1,4,-1
 39 1000 l 1,5,-1
 276 1000 l 1,6,-1
 553 614 l 1,7,-1
 810 1000 l 1,8,-1
 1048 1000 l 1,0,-1
EndSplineSet
EndChar
StartChar: Z
Encoding: 90 90 57
Width: 944
VWidth: 1747
Flags: W
LayerCount: 2
Fore
SplineSet
874 0 m 1,0,-1
 70 0 l 1,1,-1
 70 203 l 1,2,-1
 626 800 l 1,3,-1
 101 800 l 1,4,-1
 101 1000 l 1,5,-1
 874 1000 l 1,6,-1
 874 780 l 1,7,-1
 333 200 l 1,8,-1
 874 200 l 1,9,-1
 874 0 l 1,0,-1
EndSplineSet
EndChar
StartChar: grave
Encoding: 96 96 124
Width: 411
VWidth: 1747
Flags: W
LayerCount: 2
Fore
SplineSet
292 819 m 1,0,-1
 150 819 l 1,1,-1
 0 996 l 1,2,-1
 200 996 l 1,3,-1
 292 819 l 1,0,-1
EndSplineSet
EndChar
StartChar: a
Encoding: 97 97 58
Width: 565
Flags: W
LayerCount: 2
Fore
SplineSet
449 0 m 1,0,-1
 338 0 l 1,1,-1
 338 14 l 1,2,3
 287 -6 287 -6 225 -6 c 0,4,5
 154 -6 154 -6 108.5 34 c 128,-1,6
 63 74 63 74 63 137 c 0,7,8
 63 203 63 203 114 247 c 128,-1,9
 165 291 165 291 240 291 c 0,10,11
 288 291 288 291 338 274 c 1,12,13
 335 332 335 332 262 332 c 0,14,15
 200 332 200 332 141 299 c 1,16,-1
 98 391 l 1,17,18
 184 436 184 436 262 436 c 0,19,20
 352 436 352 436 400.5 392 c 128,-1,21
 449 348 449 348 449 260 c 2,22,-1
 449 0 l 1,0,-1
338 117 m 1,23,-1
 338 172 l 1,24,25
 285 190 285 190 240 190 c 0,26,27
 212 190 212 190 193 176.5 c 128,-1,28
 174 163 174 163 174 143 c 128,-1,29
 174 123 174 123 196.5 108.5 c 128,-1,30
 219 94 219 94 250 94 c 0,31,32
 296 94 296 94 338 117 c 1,23,-1
EndSplineSet
EndChar
StartChar: b
Encoding: 98 98 59
Width: 565
Flags: W
LayerCount: 2
Fore
SplineSet
502 215 m 128,-1,1
 502 126 502 126 447.5 60 c 128,-1,2
 393 -6 393 -6 319 -6 c 0,3,4
 262 -6 262 -6 233 20 c 1,5,-1
 233 0 l 1,6,-1
 117 0 l 1,7,-1
 117 549 l 1,8,-1
 233 594 l 1,9,-1
 233 408 l 1,10,11
 268 436 268 436 317 436 c 0,12,13
 392 436 392 436 447 370 c 128,-1,0
 502 304 502 304 502 215 c 128,-1,1
385 215 m 128,-1,15
 385 261 385 261 360.5 293.5 c 128,-1,16
 336 326 336 326 301 326 c 0,17,18
 256 326 256 326 233 285 c 1,19,-1
 233 145 l 1,20,21
 256 104 256 104 299 104 c 0,22,23
 335 104 335 104 360 136.5 c 128,-1,14
 385 169 385 169 385 215 c 128,-1,15
EndSplineSet
EndChar
StartChar: c
Encoding: 99 99 60
Width: 879
VWidth: 1747
Flags: W
LayerCount: 2
Fore
SplineSet
769 133 m 1,0,1
 730 82 730 82 691 56 c 1,2,3
 597 -11 597 -11 486 -10 c 0,4,5
 329 -10 329 -10 219.5 97.5 c 128,-1,6
 110 205 110 205 110 367 c 0,7,8
 110 527 110 527 219.5 635.5 c 128,-1,9
 329 744 329 744 486 744 c 0,10,11
 624 744 624 744 716 657 c 0,12,13
 728 647 728 647 769 601 c 1,14,-1
 636 437 l 1,15,16
 593 556 593 556 486 556 c 0,17,18
 414 556 414 556 360.5 500.5 c 128,-1,19
 307 445 307 445 307 366.5 c 128,-1,20
 307 288 307 288 360.5 232.5 c 128,-1,21
 414 177 414 177 486 177 c 0,22,23
 573 177 573 177 629 273 c 1,24,-1
 769 133 l 1,0,1
EndSplineSet
Validated: 33
EndChar
StartChar: d
Encoding: 100 100 61
Width: 963
VWidth: 1747
Flags: W
LayerCount: 2
Fore
SplineSet
766 0 m 1,0,-1
 580 0 l 1,1,-1
 580 34 l 1,2,3
 531 -10 531 -10 420 -10 c 0,4,5
 294 -10 294 -10 200.5 102.5 c 128,-1,6
 107 215 107 215 107 367 c 128,-1,7
 107 519 107 519 201 631.5 c 128,-1,8
 295 744 295 744 423 744 c 0,9,10
 520 744 520 744 580 696 c 1,11,-1
 580 937 l 1,12,-1
 766 1013 l 1,13,-1
 766 0 l 1,0,-1
580 247 m 1,14,-1
 580 486 l 1,15,16
 541 556 541 556 450 556 c 0,17,18
 390 556 390 556 348.5 500.5 c 128,-1,19
 307 445 307 445 307 366.5 c 128,-1,20
 307 288 307 288 349.5 232.5 c 128,-1,21
 392 177 392 177 454 177 c 0,22,23
 541 177 541 177 580 247 c 1,14,-1
EndSplineSet
EndChar
StartChar: e
Encoding: 101 101 62
Width: 873
VWidth: 1747
Flags: W
LayerCount: 2
Fore
SplineSet
766 300 m 1,0,-1
 311 300 l 1,1,2
 326 239 326 239 366 203 c 128,-1,3
 406 167 406 167 454 167 c 0,4,5
 519 167 519 167 566 234 c 1,6,-1
 703 116 l 1,7,8
 597 -10 597 -10 454 -10 c 0,9,10
 312 -10 312 -10 209.5 99 c 128,-1,11
 107 208 107 208 107 367 c 0,12,13
 107 522 107 522 208 633 c 128,-1,14
 309 744 309 744 444 744 c 0,15,16
 534 744 534 744 609 693.5 c 128,-1,17
 684 643 684 643 723 556 c 1,18,19
 766 452 766 452 766 329 c 2,20,-1
 766 300 l 1,0,-1
560 464 m 1,21,22
 522 566 522 566 444 566 c 0,23,24
 403 566 403 566 369.5 540 c 128,-1,25
 336 514 336 514 321 464 c 1,26,-1
 560 464 l 1,21,22
EndSplineSet
EndChar
StartChar: f
Encoding: 102 102 63
Width: 366
Flags: W
LayerCount: 2
Fore
SplineSet
303 326 m 1,0,-1
 223 326 l 1,1,-1
 223 0 l 1,2,-1
 113 0 l 1,3,-1
 113 326 l 1,4,-1
 57 324 l 1,5,-1
 57 426 l 1,6,-1
 113 426 l 1,7,-1
 113 477 l 2,8,9
 113 536 113 536 141 564 c 128,-1,10
 169 592 169 592 229 592 c 0,11,12
 266 592 266 592 303 586 c 1,13,-1
 303 477 l 1,14,15
 274 483 274 483 258 483 c 0,16,17
 243 483 243 483 233 474.5 c 128,-1,18
 223 466 223 466 223 451 c 2,19,-1
 223 426 l 1,20,-1
 303 426 l 1,21,-1
 303 326 l 1,0,-1
EndSplineSet
EndChar
StartChar: g
Encoding: 103 103 64
Width: 963
VWidth: 1747
Flags: W
LayerCount: 2
Fore
SplineSet
766 24 m 2,0,1
 766 -66 766 -66 750.5 -118.5 c 128,-1,2
 735 -171 735 -171 693 -220 c 1,3,4
 667 -252 667 -252 575 -310.5 c 128,-1,5
 483 -369 483 -369 454 -370 c 1,6,-1
 374 -200 l 1,7,8
 480 -144 480 -144 524 -104 c 1,9,10
 548 -85 548 -85 564 -55.5 c 128,-1,11
 580 -26 580 -26 580 0 c 2,12,-1
 580 46 l 1,13,14
 508 -10 508 -10 409 -10 c 0,15,16
 286 -10 286 -10 196.5 101 c 128,-1,17
 107 212 107 212 107 367 c 0,18,19
 107 521 107 521 197.5 632.5 c 128,-1,20
 288 744 288 744 409 744 c 0,21,22
 515 744 515 744 580 696 c 1,23,-1
 580 727 l 1,24,-1
 766 727 l 1,25,-1
 766 24 l 2,0,1
580 247 m 1,26,-1
 580 486 l 1,27,28
 558 518 558 518 518.5 537 c 128,-1,29
 479 556 479 556 440 556 c 0,30,31
 380 556 380 556 342 503 c 128,-1,32
 304 450 304 450 304 370 c 0,33,34
 304 288 304 288 342 232.5 c 128,-1,35
 380 177 380 177 440 177 c 0,36,37
 532 177 532 177 580 247 c 1,26,-1
EndSplineSet
EndChar
StartChar: h
Encoding: 104 104 65
Width: 1056
VWidth: 1747
Flags: W
LayerCount: 2
Fore
SplineSet
856 0 m 1,0,-1
 660 0 l 1,1,-1
 660 437 l 2,2,3
 660 486 660 486 627 521 c 128,-1,4
 594 556 594 556 544 556 c 0,5,6
 489 556 489 556 443.5 522 c 128,-1,7
 398 488 398 488 398 444 c 2,8,-1
 398 0 l 1,9,-1
 200 0 l 1,10,-1
 200 937 l 1,11,-1
 398 1013 l 1,12,-1
 398 688 l 1,13,14
 507 748 507 748 597 747 c 0,15,16
 704 747 704 747 780 676.5 c 128,-1,17
 856 606 856 606 856 503 c 2,18,-1
 856 0 l 1,0,-1
EndSplineSet
EndChar
StartChar: i
Encoding: 105 105 66
Width: 350
Flags: W
LayerCount: 2
Fore
SplineSet
231 537 m 0,0,1
 231 513 231 513 214.5 496 c 128,-1,2
 198 479 198 479 174 479 c 0,3,4
 151 479 151 479 135 496 c 128,-1,5
 119 513 119 513 119 537 c 0,6,7
 119 562 119 562 135 578 c 128,-1,8
 151 594 151 594 174 594 c 0,9,10
 199 594 199 594 215 578 c 128,-1,11
 231 562 231 562 231 537 c 0,0,1
233 0 m 1,12,-1
 117 0 l 1,13,-1
 117 426 l 1,14,-1
 233 426 l 1,15,-1
 233 0 l 1,12,-1
EndSplineSet
EndChar
StartChar: j
Encoding: 106 106 67
Width: 344
Flags: W
LayerCount: 2
Fore
SplineSet
227 535 m 128,-1,1
 227 510 227 510 210 492.5 c 128,-1,2
 193 475 193 475 168 475 c 128,-1,3
 143 475 143 475 126 492.5 c 128,-1,4
 109 510 109 510 109 535 c 128,-1,5
 109 560 109 560 126 577 c 128,-1,6
 143 594 143 594 168 594 c 128,-1,7
 193 594 193 594 210 577 c 128,-1,0
 227 560 227 560 227 535 c 128,-1,1
227 0 m 2,8,9
 227 -71 227 -71 215 -107 c 128,-1,10
 203 -143 203 -143 170 -172 c 0,11,12
 118 -218 118 -218 12 -221 c 1,13,-1
 12 -109 l 1,14,15
 65 -106 65 -106 88 -86 c 1,16,17
 111 -63 111 -63 111 0 c 2,18,-1
 111 426 l 1,19,-1
 227 426 l 1,20,-1
 227 0 l 2,8,9
EndSplineSet
EndChar
StartChar: k
Encoding: 107 107 68
Width: 565
Flags: W
LayerCount: 2
Fore
SplineSet
502 424 m 1,0,-1
 379 295 l 1,1,-1
 498 0 l 1,2,-1
 379 0 l 1,3,-1
 301 197 l 1,4,-1
 233 129 l 1,5,-1
 233 0 l 1,6,-1
 117 0 l 1,7,-1
 117 549 l 1,8,-1
 233 594 l 1,9,-1
 233 305 l 1,10,-1
 356 424 l 1,11,-1
 502 424 l 1,0,-1
EndSplineSet
EndChar
StartChar: l
Encoding: 108 108 69
Width: 598
VWidth: 1747
Flags: W
LayerCount: 2
Fore
SplineSet
398 0 m 1,0,-1
 200 0 l 1,1,-1
 200 937 l 1,2,-1
 398 1013 l 1,3,-1
 398 0 l 1,0,-1
EndSplineSet
Validated: 1
EndChar
StartChar: m
Encoding: 109 109 70
Width: 874
Flags: W
LayerCount: 2
Fore
SplineSet
758 0 m 1,0,-1
 643 0 l 1,1,-1
 643 256 l 2,2,3
 643 285 643 285 620.5 305.5 c 128,-1,4
 598 326 598 326 567 326 c 0,5,6
 538 326 538 326 516 305.5 c 128,-1,7
 494 285 494 285 494 260 c 2,8,-1
 494 0 l 1,9,-1
 383 0 l 1,10,-1
 383 256 l 2,11,12
 383 285 383 285 361.5 305.5 c 128,-1,13
 340 326 340 326 309 326 c 128,-1,14
 278 326 278 326 255.5 306 c 128,-1,15
 233 286 233 286 233 258 c 2,16,-1
 233 0 l 1,17,-1
 117 0 l 1,18,-1
 117 426 l 1,19,-1
 233 426 l 1,20,-1
 233 403 l 1,21,22
 287 436 287 436 344 436 c 0,23,24
 411 436 411 436 457 387 c 1,25,26
 498 416 498 416 524.5 426 c 128,-1,27
 551 436 551 436 588 436 c 0,28,29
 657 436 657 436 707.5 394.5 c 128,-1,30
 758 353 758 353 758 293 c 2,31,-1
 758 0 l 1,0,-1
EndSplineSet
EndChar
StartChar: n
Encoding: 110 110 71
Width: 618
Flags: W
LayerCount: 2
Fore
SplineSet
502 0 m 1,0,-1
 387 0 l 1,1,-1
 387 256 l 2,2,3
 387 286 387 286 367.5 306 c 128,-1,4
 348 326 348 326 315 326 c 0,5,6
 284 326 284 326 258.5 305 c 128,-1,7
 233 284 233 284 233 258 c 2,8,-1
 233 0 l 1,9,-1
 117 0 l 1,10,-1
 117 426 l 1,11,-1
 233 426 l 1,12,-1
 233 403 l 1,13,14
 284 436 284 436 348 436 c 0,15,16
 414 436 414 436 458 395 c 128,-1,17
 502 354 502 354 502 293 c 2,18,-1
 502 0 l 1,0,-1
EndSplineSet
EndChar
StartChar: o
Encoding: 111 111 72
Width: 893
VWidth: 1747
Flags: W
LayerCount: 2
Fore
SplineSet
786 363.5 m 128,-1,1
 786 208 786 208 682 97 c 128,-1,2
 578 -14 578 -14 444 -14 c 0,3,4
 308 -14 308 -14 207.5 96 c 128,-1,5
 107 206 107 206 107 363 c 0,6,7
 107 525 107 525 204.5 634.5 c 128,-1,8
 302 744 302 744 444 744 c 0,9,10
 577 744 577 744 681.5 631.5 c 128,-1,0
 786 519 786 519 786 363.5 c 128,-1,1
583 363 m 0,11,12
 583 443 583 443 541.5 499.5 c 128,-1,13
 500 556 500 556 444 556 c 0,14,15
 386 556 386 556 346.5 500 c 128,-1,16
 307 444 307 444 307 363 c 0,17,18
 307 285 307 285 346.5 229.5 c 128,-1,19
 386 174 386 174 444 174 c 0,20,21
 500 174 500 174 541.5 230 c 128,-1,22
 583 286 583 286 583 363 c 0,11,12
EndSplineSet
EndChar
StartChar: p
Encoding: 112 112 73
Width: 963
VWidth: 1747
Flags: W
LayerCount: 2
Fore
SplineSet
856 367 m 128,-1,1
 856 215 856 215 762.5 102.5 c 128,-1,2
 669 -10 669 -10 541 -10 c 0,3,4
 459 -10 459 -10 398 34 c 1,5,-1
 398 -220 l 1,6,-1
 200 -293 l 1,7,-1
 200 727 l 1,8,-1
 398 727 l 1,9,-1
 398 696 l 1,10,11
 446 744 446 744 544 744 c 0,12,13
 670 744 670 744 763 631.5 c 128,-1,0
 856 519 856 519 856 367 c 128,-1,1
657 366.5 m 128,-1,15
 657 445 657 445 614.5 500.5 c 128,-1,16
 572 556 572 556 510 556 c 0,17,18
 437 556 437 556 398 486 c 1,19,-1
 398 247 l 1,20,21
 437 177 437 177 514 177 c 0,22,23
 574 177 574 177 615.5 232.5 c 128,-1,14
 657 288 657 288 657 366.5 c 128,-1,15
EndSplineSet
EndChar
StartChar: q
Encoding: 113 113 74
Width: 963
VWidth: 1747
Flags: W
LayerCount: 2
Fore
SplineSet
766 -220 m 1,0,-1
 570 -293 l 1,1,-1
 570 34 l 1,2,3
 509 -10 509 -10 423 -10 c 0,4,5
 295 -10 295 -10 201 102.5 c 128,-1,6
 107 215 107 215 107 367 c 128,-1,7
 107 519 107 519 200 631.5 c 128,-1,8
 293 744 293 744 420 744 c 0,9,10
 516 744 516 744 570 696 c 1,11,-1
 570 727 l 1,12,-1
 766 727 l 1,13,-1
 766 -220 l 1,0,-1
570 247 m 1,14,-1
 570 486 l 1,15,16
 534 556 534 556 454 556 c 0,17,18
 393 556 393 556 350 500.5 c 128,-1,19
 307 445 307 445 307 366.5 c 128,-1,20
 307 288 307 288 349 232.5 c 128,-1,21
 391 177 391 177 450 177 c 0,22,23
 527 177 527 177 570 247 c 1,14,-1
EndSplineSet
EndChar
StartChar: r
Encoding: 114 114 75
Width: 736
VWidth: 1747
Flags: W
LayerCount: 2
Fore
SplineSet
696 693 m 1,0,-1
 630 493 l 1,1,2
 592 556 592 556 514 556 c 0,3,4
 451 556 451 556 424.5 518.5 c 128,-1,5
 398 481 398 481 398 403 c 2,6,-1
 398 0 l 1,7,-1
 200 0 l 1,8,-1
 200 727 l 1,9,-1
 398 727 l 1,10,-1
 398 693 l 1,11,12
 463 744 463 744 541 744 c 0,13,14
 631 744 631 744 696 693 c 1,0,-1
EndSplineSet
Validated: 1
EndChar
StartChar: s
Encoding: 115 115 76
Width: 501
Flags: W
LayerCount: 2
Fore
SplineSet
436 123 m 0,0,1
 436 69 436 69 399 37 c 0,2,3
 348 -6 348 -6 246 -6 c 0,4,5
 134 -6 134 -6 53 35 c 1,6,-1
 98 137 l 1,7,8
 169 104 169 104 242 104 c 0,9,10
 319 104 319 104 319 129 c 0,11,12
 319 150 319 150 287 156 c 0,13,14
 282 157 282 157 246 165.5 c 128,-1,15
 210 174 210 174 199 178 c 0,16,17
 130 198 130 198 98 230.5 c 128,-1,18
 66 263 66 263 66 313 c 0,19,20
 66 370 66 370 113 403 c 128,-1,21
 160 436 160 436 240 436 c 0,22,23
 331 436 331 436 424 391 c 1,24,-1
 379 289 l 1,25,26
 310 326 310 326 244 326 c 0,27,28
 182 326 182 326 182 303 c 0,29,30
 182 291 182 291 194.5 285 c 128,-1,31
 207 279 207 279 252 272 c 1,32,33
 346 253 346 253 391 217.5 c 128,-1,34
 436 182 436 182 436 123 c 0,0,1
EndSplineSet
EndChar
StartChar: t
Encoding: 116 116 77
Width: 425
Flags: W
LayerCount: 2
Fore
SplineSet
356 324 m 1,0,-1
 248 324 l 1,1,-1
 248 164 l 2,2,3
 248 132 248 132 258.5 117.5 c 128,-1,4
 269 103 269 103 299 106 c 0,5,6
 304 106 304 106 308 106.5 c 128,-1,7
 312 107 312 107 315 108 c 128,-1,8
 318 109 318 109 321.5 110 c 128,-1,9
 325 111 325 111 327 112 c 128,-1,10
 329 113 329 113 332 115 c 128,-1,11
 335 117 335 117 336.5 118 c 128,-1,12
 338 119 338 119 341 122 c 128,-1,13
 344 125 344 125 345.5 126.5 c 128,-1,14
 347 128 347 128 350.5 131.5 c 128,-1,15
 354 135 354 135 356 137 c 1,16,-1
 326 16 l 1,17,18
 315 12 315 12 304 6.5 c 128,-1,19
 293 1 293 1 288.5 -1 c 128,-1,20
 284 -3 284 -3 274.5 -4.5 c 128,-1,21
 265 -6 265 -6 250 -6 c 0,22,23
 133 -6 133 -6 133 125 c 2,24,-1
 133 324 l 1,25,-1
 53 324 l 1,26,-1
 53 424 l 1,27,-1
 133 424 l 1,28,-1
 133 549 l 1,29,-1
 248 594 l 1,30,-1
 248 426 l 1,31,-1
 356 426 l 1,32,-1
 356 324 l 1,0,-1
EndSplineSet
EndChar
StartChar: u
Encoding: 117 117 78
Width: 618
Flags: W
LayerCount: 2
Fore
SplineSet
502 0 m 1,0,-1
 391 0 l 1,1,-1
 391 27 l 1,2,3
 361 6 361 6 337.5 0 c 128,-1,4
 314 -6 314 -6 279 -6 c 0,5,6
 203 -6 203 -6 160 37 c 128,-1,7
 117 80 117 80 117 139 c 2,8,-1
 117 426 l 1,9,-1
 233 426 l 1,10,-1
 233 178 l 2,11,12
 233 147 233 147 252.5 126.5 c 128,-1,13
 272 106 272 106 305 106 c 0,14,15
 336 106 336 106 360.5 127 c 128,-1,16
 385 148 385 148 385 174 c 2,17,-1
 385 426 l 1,18,-1
 502 426 l 1,19,-1
 502 0 l 1,0,-1
EndSplineSet
EndChar
StartChar: v
Encoding: 118 118 79
Width: 552
Flags: W
LayerCount: 2
Fore
SplineSet
502 426 m 1,0,-1
 342 0 l 1,1,-1
 213 0 l 1,2,-1
 53 426 l 1,3,-1
 174 426 l 1,4,-1
 281 154 l 1,5,-1
 379 426 l 1,6,-1
 502 426 l 1,0,-1
EndSplineSet
EndChar
StartChar: w
Encoding: 119 119 80
Width: 1194
VWidth: 1747
Flags: W
LayerCount: 2
Fore
SplineSet
1104 727 m 1,0,-1
 891 0 l 1,1,-1
 699 0 l 1,2,-1
 607 360 l 1,3,-1
 493 0 l 1,4,-1
 300 0 l 1,5,-1
 90 727 l 1,6,-1
 293 727 l 1,7,-1
 394 380 l 1,8,-1
 496 727 l 1,9,-1
 713 727 l 1,10,-1
 800 384 l 1,11,-1
 897 727 l 1,12,-1
 1104 727 l 1,0,-1
EndSplineSet
EndChar
StartChar: x
Encoding: 120 120 81
Width: 593
Flags: W
LayerCount: 2
Fore
SplineSet
530 0 m 1,0,-1
 391 0 l 1,1,-1
 299 141 l 1,2,-1
 203 0 l 1,3,-1
 63 0 l 1,4,-1
 225 236 l 1,5,-1
 100 426 l 1,6,-1
 238 426 l 1,7,-1
 299 340 l 1,8,-1
 356 426 l 1,9,-1
 496 426 l 1,10,-1
 369 236 l 1,11,-1
 530 0 l 1,0,-1
EndSplineSet
EndChar
StartChar: y
Encoding: 121 121 82
Width: 593
Flags: W
LayerCount: 2
Fore
SplineSet
543 426 m 1,0,-1
 301 -164 l 1,1,-1
 184 -164 l 1,2,-1
 254 6 l 1,3,-1
 53 426 l 1,4,-1
 186 426 l 1,5,-1
 303 143 l 1,6,-1
 420 426 l 1,7,-1
 543 426 l 1,0,-1
EndSplineSet
EndChar
StartChar: z
Encoding: 122 122 83
Width: 914
VWidth: 1747
Flags: W
LayerCount: 2
Fore
SplineSet
797 0 m 1,0,-1
 119 0 l 1,1,-1
 119 174 l 1,2,-1
 471 531 l 1,3,-1
 140 531 l 1,4,-1
 140 727 l 1,5,-1
 797 727 l 1,6,-1
 797 566 l 1,7,-1
 430 196 l 1,8,-1
 797 196 l 1,9,-1
 797 0 l 1,0,-1
EndSplineSet
EndChar
StartChar: cent
Encoding: 162 162 84
Width: 837
VWidth: 1747
Flags: W
LayerCount: 2
Fore
SplineSet
769 256 m 1,0,1
 691 137 691 137 573 104 c 1,2,-1
 573 -73 l 1,3,-1
 374 -73 l 1,4,-1
 374 104 l 1,5,6
 258 118 258 118 177.5 233 c 128,-1,7
 97 348 97 348 97 507 c 0,8,9
 97 671 97 671 167 777.5 c 128,-1,10
 237 884 237 884 374 904 c 1,11,-1
 374 1054 l 1,12,-1
 573 1054 l 1,13,-1
 573 904 l 1,14,15
 706 875 706 875 769 757 c 1,16,-1
 643 601 l 1,17,18
 607 652 607 652 569 681 c 128,-1,19
 531 710 531 710 471 710 c 0,20,21
 375 710 375 710 336 651 c 128,-1,22
 297 592 297 592 297 507 c 0,23,24
 297 429 297 429 343 364.5 c 128,-1,25
 389 300 389 300 471 300 c 0,26,27
 539 300 539 300 578.5 331.5 c 128,-1,28
 618 363 618 363 630 398 c 1,29,-1
 769 256 l 1,0,1
EndSplineSet
EndChar
StartChar: dieresis
Encoding: 168 168 125
Width: 430
Flags: W
LayerCount: 2
Fore
SplineSet
357 537 m 0,0,1
 357 513 357 513 340.5 496 c 128,-1,2
 324 479 324 479 300 479 c 0,3,4
 277 479 277 479 261 496 c 128,-1,5
 245 513 245 513 245 537 c 0,6,7
 245 562 245 562 261 578 c 128,-1,8
 277 594 277 594 300 594 c 0,9,10
 325 594 325 594 341 578 c 128,-1,11
 357 562 357 562 357 537 c 0,0,1
185 537 m 0,12,13
 185 513 185 513 168.5 496 c 128,-1,14
 152 479 152 479 128 479 c 0,15,16
 105 479 105 479 89 496 c 128,-1,17
 73 513 73 513 73 537 c 0,18,19
 73 562 73 562 89 578 c 128,-1,20
 105 594 105 594 128 594 c 0,21,22
 153 594 153 594 169 578 c 128,-1,23
 185 562 185 562 185 537 c 0,12,13
EndSplineSet
EndChar
StartChar: uni00B2
Encoding: 178 178 87
AltUni2: 002072.ffffffff.0
Width: 400
Flags: W
LayerCount: 2
Fore
SplineSet
358 195 m 1,0,-1
 42 195 l 1,1,2
 45 244 45 244 57 277 c 0,3,4
 83 350 83 350 146 393 c 0,5,6
 165 406 165 406 199 420 c 2,7,-1
 215 427 l 1,8,-1
 228 431 l 1,9,-1
 241 436 l 1,10,11
 277 452 277 452 277 474 c 0,12,13
 277 491 277 491 256 502 c 128,-1,14
 235 513 235 513 201 513 c 0,15,16
 171 513 171 513 148 504.5 c 128,-1,17
 125 496 125 496 97 474 c 1,18,-1
 42 531 l 1,19,20
 77 557 77 557 98 566 c 1,21,22
 145 591 145 591 203 591 c 0,23,24
 282 591 282 591 322 553 c 0,25,26
 353 524 353 524 353 476 c 0,27,28
 353 392 353 392 243 354 c 1,29,30
 209 341 209 341 196 333.5 c 128,-1,31
 183 326 183 326 168 311 c 0,32,33
 149 292 149 292 139 273 c 1,34,-1
 358 273 l 1,35,-1
 358 195 l 1,0,-1
EndSplineSet
EndChar
StartChar: uni00B3
Encoding: 179 179 88
AltUni2: 002073.ffffffff.0
Width: 353
Flags: W
LayerCount: 2
Fore
SplineSet
334 310 m 0,0,1
 334 256 334 256 293 222 c 128,-1,2
 252 188 252 188 186 188 c 0,3,4
 149 188 149 188 111 203 c 128,-1,5
 73 218 73 218 46 243 c 0,6,7
 29 260 29 260 19 274 c 1,8,-1
 82 318 l 1,9,10
 122 266 122 266 190 266 c 0,11,12
 221 266 221 266 239.5 278 c 128,-1,13
 258 290 258 290 258 311 c 0,14,15
 258 325 258 325 249 338.5 c 128,-1,16
 240 352 240 352 228 358 c 0,17,18
 212 366 212 366 190 366 c 2,19,-1
 178 366 l 1,20,-1
 178 444 l 1,21,-1
 199 444 l 2,22,23
 216 444 216 444 222 448 c 0,24,25
 238 457 238 457 238 475 c 0,26,27
 238 492 238 492 221 502.5 c 128,-1,28
 204 513 204 513 176 513 c 0,29,30
 128 513 128 513 94 480 c 1,31,-1
 38 531 l 1,32,33
 98 591 98 591 178 591 c 0,34,35
 239 591 239 591 277 559.5 c 128,-1,36
 315 528 315 528 315 478 c 0,37,38
 315 434 315 434 285 404 c 1,39,40
 334 362 334 362 334 310 c 0,0,1
EndSplineSet
EndChar
StartChar: acute
Encoding: 180 180 126
Width: 241
Flags: W
LayerCount: 2
Fore
SplineSet
124 584 m 1,0,-1
 241 584 l 1,1,-1
 153 480 l 1,2,-1
 70 480 l 1,3,-1
 124 584 l 1,0,-1
EndSplineSet
EndChar
StartChar: cedilla
Encoding: 184 184 181
Width: 298
Flags: W
LayerCount: 2
Fore
SplineSet
118 6 m 1,0,-1
 157 6 l 1,1,-1
 149 -23 l 1,2,3
 201 -5 201 -5 219 -39 c 0,4,5
 238 -76 238 -76 207 -110 c 0,6,7
 193 -126 193 -126 152 -126 c 0,8,9
 105 -125 105 -125 60 -101 c 1,10,-1
 74 -68 l 1,11,12
 103 -86 103 -86 136 -85 c 0,13,14
 159 -84 159 -84 165 -74 c 0,15,16
 170 -66 170 -66 162 -56 c 0,17,18
 152 -43 152 -43 128 -61 c 1,19,-1
 104 -43 l 1,20,-1
 118 6 l 1,0,-1
EndSplineSet
EndChar
StartChar: uni00B9
Encoding: 185 185 86
AltUni2: 002071.ffffffff.0
Width: 359
VWidth: 1747
Flags: W
LayerCount: 2
Fore
SplineSet
280 333 m 1,0,-1
 145 333 l 1,1,-1
 145 785 l 1,2,-1
 80 785 l 1,3,-1
 80 920 l 1,4,5
 104 932 104 932 117.5 943.5 c 128,-1,6
 131 955 131 955 135.5 963.5 c 128,-1,7
 140 972 140 972 154 1000 c 1,8,-1
 280 1000 l 1,9,-1
 280 333 l 1,0,-1
EndSplineSet
EndChar
StartChar: dotlessi
Encoding: 305 305 178
Width: 350
Flags: W
LayerCount: 2
Fore
SplineSet
233 0 m 1,0,-1
 117 0 l 1,1,-1
 117 426 l 1,2,-1
 233 426 l 1,3,-1
 233 0 l 1,0,-1
EndSplineSet
EndChar
StartChar: circumflex
Encoding: 710 710 179
Width: 626
VWidth: 1747
Flags: W
LayerCount: 2
Fore
SplineSet
406 996 m 1,0,-1
 532 819 l 1,1,-1
 408 819 l 1,2,-1
 314 891 l 1,3,-1
 218 819 l 1,4,-1
 94 819 l 1,5,-1
 220 996 l 1,6,-1
 406 996 l 1,0,-1
EndSplineSet
EndChar
StartChar: tilde
Encoding: 732 732 180
Width: 667
VWidth: 1747
Flags: W
LayerCount: 2
Fore
SplineSet
106 843 m 1,0,1
 106 932 106 932 150 983 c 1,2,3
 189 1026 189 1026 244 1025 c 256,4,5
 299 1025 299 1025 346 995 c 256,6,7
 394 964 394 964 413 964 c 0,8,9
 445 964 445 964 450 1024 c 1,10,-1
 561 1024 l 1,11,12
 561 946 561 946 525 896 c 0,13,14
 486 840 486 840 418 839 c 0,15,16
 375 839 375 839 322 872 c 0,17,18
 269 903 269 903 256 903 c 0,19,20
 220 903 220 903 217 843 c 1,21,-1
 106 843 l 1,0,1
EndSplineSet
Validated: 33
EndChar
StartChar: fraction
Encoding: 8260 8260 105
Width: 708
VWidth: 1747
Flags: W
LayerCount: 2
Fore
SplineSet
708 998 m 1,0,-1
 133 0 l 1,1,-1
 0 0 l 1,2,-1
 575 998 l 1,3,-1
 708 998 l 1,0,-1
EndSplineSet
Validated: 1
EndChar
StartChar: uni2070
Encoding: 8304 8304 85
Width: 403
Flags: W
LayerCount: 2
Fore
SplineSet
365 390 m 0,0,1
 365 298 365 298 320.5 243 c 128,-1,2
 276 188 276 188 202 188 c 0,3,4
 159 188 159 188 127 205 c 128,-1,5
 95 222 95 222 76 251 c 128,-1,6
 57 280 57 280 47.5 315 c 128,-1,7
 38 350 38 350 38 390 c 0,8,9
 38 482 38 482 82 536.5 c 128,-1,10
 126 591 126 591 202 591 c 0,11,12
 273 591 273 591 319 535.5 c 128,-1,13
 365 480 365 480 365 390 c 0,0,1
288 392 m 0,14,15
 288 513 288 513 202 513 c 128,-1,16
 116 513 116 513 116 390 c 0,17,18
 116 331 116 331 138.5 298.5 c 128,-1,19
 161 266 161 266 202 266 c 0,20,21
 242 266 242 266 265 300 c 128,-1,22
 288 334 288 334 288 392 c 0,14,15
EndSplineSet
EndChar
StartChar: uni2074
Encoding: 8308 8308 89
Width: 428
Flags: W
LayerCount: 2
Fore
SplineSet
375 281 m 1,0,-1
 317 281 l 1,1,-1
 317 195 l 1,2,-1
 240 195 l 1,3,-1
 240 281 l 1,4,-1
 12 281 l 1,5,-1
 12 354 l 1,6,-1
 240 586 l 1,7,-1
 317 586 l 1,8,-1
 317 354 l 1,9,-1
 375 354 l 1,10,-1
 375 281 l 1,0,-1
240 354 m 1,11,-1
 240 480 l 1,12,-1
 113 354 l 1,13,-1
 240 354 l 1,11,-1
EndSplineSet
EndChar
StartChar: uni2075
Encoding: 8309 8309 90
Width: 682
VWidth: 1747
Flags: W
LayerCount: 2
Fore
SplineSet
611 554 m 0,0,1
 611 505 611 505 588 457 c 128,-1,2
 565 409 565 409 527 377 c 0,3,4
 464 321 464 321 345 321 c 0,5,6
 193 321 193 321 72 391 c 1,7,-1
 145 505 l 1,8,9
 237 454 237 454 345 454 c 0,10,11
 480 454 480 454 479 556 c 0,12,13
 479 657 479 657 343 657 c 0,14,15
 295 657 295 657 222 631 c 1,16,-1
 87 684 l 1,17,-1
 114 1000 l 1,18,-1
 551 1000 l 1,19,-1
 551 867 l 1,20,-1
 247 863 l 1,21,-1
 235 778 l 1,22,23
 295 788 295 788 345 788 c 0,24,25
 432 788 432 788 493 757 c 1,26,27
 548 725 548 725 579.5 671 c 128,-1,28
 611 617 611 617 611 554 c 0,0,1
EndSplineSet
EndChar
StartChar: uni2076
Encoding: 8310 8310 91
Width: 391
Flags: W
LayerCount: 2
Fore
SplineSet
353 307 m 0,0,1
 353 254 353 254 311 221 c 128,-1,2
 269 188 269 188 201 188 c 0,3,4
 165 188 165 188 132 199.5 c 128,-1,5
 99 211 99 211 81 230 c 0,6,7
 38 273 38 273 38 354 c 0,8,9
 38 412 38 412 65.5 463 c 128,-1,10
 93 514 93 514 141 548 c 0,11,12
 201 591 201 591 283 591 c 2,13,-1
 293 591 l 1,14,-1
 293 513 l 1,15,-1
 284 513 l 2,16,17
 174 513 174 513 129 416 c 1,18,19
 168 427 168 427 201 427 c 0,20,21
 255 427 255 427 297 405 c 1,22,23
 323 389 323 389 338 363 c 128,-1,24
 353 337 353 337 353 307 c 0,0,1
277 308 m 256,25,26
 277 327 277 327 258 338 c 128,-1,27
 239 349 239 349 205 349 c 0,28,29
 166 349 166 349 150 341 c 1,30,31
 123 331 123 331 123 308 c 0,32,33
 123 289 123 289 145 277.5 c 128,-1,34
 167 266 167 266 203 266 c 0,35,36
 237 266 237 266 257 277.5 c 128,-1,37
 277 289 277 289 277 308 c 256,25,26
EndSplineSet
EndChar
StartChar: uni2077
Encoding: 8311 8311 92
Width: 361
Flags: W
LayerCount: 2
Fore
SplineSet
338 505 m 1,0,1
 293 460 293 460 264 404 c 0,2,3
 212 300 212 300 212 195 c 1,4,-1
 135 195 l 1,5,6
 135 365 135 365 234 508 c 1,7,-1
 23 508 l 1,8,-1
 23 584 l 1,9,-1
 338 584 l 1,10,-1
 338 505 l 1,0,1
EndSplineSet
EndChar
StartChar: uni2078
Encoding: 8312 8312 93
Width: 391
Flags: W
LayerCount: 2
Fore
SplineSet
353 318 m 0,0,1
 353 259 353 259 309 222 c 0,2,3
 268 188 268 188 198 188 c 0,4,5
 109 188 109 188 68 237 c 0,6,7
 38 273 38 273 38 318 c 0,8,9
 38 372 38 372 79 410 c 1,10,11
 51 438 51 438 51 480 c 0,12,13
 51 531 51 531 92 561 c 128,-1,14
 133 591 133 591 198 591 c 128,-1,15
 263 591 263 591 302 561 c 128,-1,16
 341 531 341 531 341 480 c 0,17,18
 341 441 341 441 314 410 c 1,19,20
 353 374 353 374 353 318 c 0,0,1
265 482 m 0,21,22
 265 496 265 496 247 504.5 c 128,-1,23
 229 513 229 513 198 513 c 128,-1,24
 167 513 167 513 148 504.5 c 128,-1,25
 129 496 129 496 129 482 c 0,26,27
 129 466 129 466 148 457.5 c 128,-1,28
 167 449 167 449 198 449 c 256,29,30
 229 449 229 449 247 457.5 c 128,-1,31
 265 466 265 466 265 482 c 0,21,22
277 318 m 0,32,33
 277 370 277 370 198 370 c 0,34,35
 159 370 159 370 137.5 356.5 c 128,-1,36
 116 343 116 343 116 318 c 256,37,38
 116 293 116 293 138 279.5 c 128,-1,39
 160 266 160 266 198 266 c 0,40,41
 237 266 237 266 257 279.5 c 128,-1,42
 277 293 277 293 277 318 c 0,32,33
EndSplineSet
EndChar
StartChar: uni2079
Encoding: 8313 8313 94
Width: 391
Flags: W
LayerCount: 2
Fore
SplineSet
353 426 m 0,0,1
 353 366 353 366 327.5 315 c 128,-1,2
 302 264 302 264 254 232 c 0,3,4
 187 188 187 188 108 188 c 2,5,-1
 97 188 l 1,6,-1
 97 268 l 1,7,8
 103 266 103 266 107 266 c 0,9,10
 163 266 163 266 205.5 293 c 128,-1,11
 248 320 248 320 271 370 c 1,12,13
 229 354 229 354 195 354 c 0,14,15
 128 354 128 354 85 382 c 1,16,17
 64 397 64 397 51 422 c 128,-1,18
 38 447 38 447 38 472 c 0,19,20
 38 525 38 525 81.5 558 c 128,-1,21
 125 591 125 591 195 591 c 0,22,23
 275 591 275 591 315 548 c 1,24,25
 353 510 353 510 353 426 c 0,0,1
269 474 m 0,26,27
 269 492 269 492 249 503 c 128,-1,28
 229 514 229 514 193 514 c 0,29,30
 158 514 158 514 137.5 503 c 128,-1,31
 117 492 117 492 117 472 c 0,32,33
 117 432 117 432 193 432 c 256,34,35
 269 432 269 432 269 474 c 0,26,27
EndSplineSet
EndChar
StartChar: uni2080
Encoding: 8320 8320 95
Width: 403
Flags: W
LayerCount: 2
Fore
SplineSet
365 195 m 0,0,1
 365 103 365 103 320.5 48 c 128,-1,2
 276 -7 276 -7 202 -7 c 0,3,4
 159 -7 159 -7 127 10 c 128,-1,5
 95 27 95 27 76 56 c 128,-1,6
 57 85 57 85 47.5 120 c 128,-1,7
 38 155 38 155 38 195 c 0,8,9
 38 287 38 287 82 341.5 c 128,-1,10
 126 396 126 396 202 396 c 0,11,12
 273 396 273 396 319 340.5 c 128,-1,13
 365 285 365 285 365 195 c 0,0,1
288 197 m 0,14,15
 288 318 288 318 202 318 c 128,-1,16
 116 318 116 318 116 195 c 0,17,18
 116 136 116 136 138.5 103.5 c 128,-1,19
 161 71 161 71 202 71 c 0,20,21
 242 71 242 71 265 105 c 128,-1,22
 288 139 288 139 288 197 c 0,14,15
EndSplineSet
EndChar
StartChar: uni2081
Encoding: 8321 8321 96
Width: 211
Flags: W
LayerCount: 2
Fore
SplineSet
164 0 m 1,0,-1
 85 0 l 1,1,-1
 85 265 l 1,2,-1
 47 265 l 1,3,-1
 47 344 l 1,4,5
 61 351 61 351 69 358 c 128,-1,6
 77 365 77 365 79.5 370 c 128,-1,7
 82 375 82 375 90 391 c 1,8,-1
 164 391 l 1,9,-1
 164 0 l 1,0,-1
EndSplineSet
EndChar
StartChar: uni2082
Encoding: 8322 8322 97
Width: 682
VWidth: 1747
Flags: W
LayerCount: 2
Fore
SplineSet
611 0 m 1,0,-1
 72 0 l 1,1,2
 77 84 77 84 97 140 c 0,3,4
 141 265 141 265 249 338 c 0,5,6
 281 360 281 360 340 384 c 2,7,-1
 367 396 l 1,8,-1
 389 403 l 1,9,-1
 411 411 l 1,10,11
 472 438 472 438 473 476 c 0,12,13
 473 505 473 505 437 524 c 128,-1,14
 401 543 401 543 343 543 c 0,15,16
 292 543 292 543 252.5 528.5 c 128,-1,17
 213 514 213 514 165 476 c 1,18,-1
 72 573 l 1,19,20
 132 617 132 617 167 633 c 1,21,22
 247 676 247 676 346 676 c 0,23,24
 481 676 481 676 549 611 c 0,25,26
 602 562 602 562 602 479 c 0,27,28
 602 336 602 336 415 271 c 1,29,30
 357 249 357 249 334.5 236 c 128,-1,31
 312 223 312 223 287 198 c 0,32,33
 255 166 255 166 237 133 c 1,34,-1
 611 133 l 1,35,-1
 611 0 l 1,0,-1
EndSplineSet
EndChar
StartChar: uni2083
Encoding: 8323 8323 98
Width: 353
Flags: W
LayerCount: 2
Fore
SplineSet
334 115 m 0,0,1
 334 61 334 61 293 27 c 128,-1,2
 252 -7 252 -7 186 -7 c 0,3,4
 149 -7 149 -7 111 8 c 128,-1,5
 73 23 73 23 46 48 c 0,6,7
 29 65 29 65 19 79 c 1,8,-1
 82 123 l 1,9,10
 122 71 122 71 190 71 c 0,11,12
 221 71 221 71 239.5 83 c 128,-1,13
 258 95 258 95 258 116 c 0,14,15
 258 130 258 130 249 143.5 c 128,-1,16
 240 157 240 157 228 163 c 0,17,18
 212 171 212 171 190 171 c 2,19,-1
 178 171 l 1,20,-1
 178 249 l 1,21,-1
 199 249 l 2,22,23
 216 249 216 249 222 253 c 0,24,25
 238 262 238 262 238 280 c 0,26,27
 238 297 238 297 221 307.5 c 128,-1,28
 204 318 204 318 176 318 c 0,29,30
 128 318 128 318 94 285 c 1,31,-1
 38 336 l 1,32,33
 98 396 98 396 178 396 c 0,34,35
 239 396 239 396 277 364.5 c 128,-1,36
 315 333 315 333 315 283 c 0,37,38
 315 239 315 239 285 209 c 1,39,40
 334 167 334 167 334 115 c 0,0,1
EndSplineSet
EndChar
StartChar: uni2084
Encoding: 8324 8324 99
Width: 428
Flags: W
LayerCount: 2
Fore
SplineSet
375 86 m 1,0,-1
 317 86 l 1,1,-1
 317 0 l 1,2,-1
 240 0 l 1,3,-1
 240 86 l 1,4,-1
 12 86 l 1,5,-1
 12 159 l 1,6,-1
 240 391 l 1,7,-1
 317 391 l 1,8,-1
 317 159 l 1,9,-1
 375 159 l 1,10,-1
 375 86 l 1,0,-1
240 159 m 1,11,-1
 240 285 l 1,12,-1
 113 159 l 1,13,-1
 240 159 l 1,11,-1
EndSplineSet
EndChar
StartChar: uni2085
Encoding: 8325 8325 100
Width: 400
Flags: W
LayerCount: 2
Fore
SplineSet
358 130 m 0,0,1
 358 101 358 101 344.5 73 c 128,-1,2
 331 45 331 45 309 26 c 0,3,4
 272 -7 272 -7 202 -7 c 0,5,6
 113 -7 113 -7 42 34 c 1,7,-1
 85 101 l 1,8,9
 139 71 139 71 202 71 c 0,10,11
 281 71 281 71 281 131 c 0,12,13
 281 190 281 190 201 190 c 0,14,15
 173 190 173 190 130 175 c 1,16,-1
 51 206 l 1,17,-1
 67 391 l 1,18,-1
 323 391 l 1,19,-1
 323 313 l 1,20,-1
 145 311 l 1,21,-1
 138 261 l 1,22,23
 173 267 173 267 202 267 c 0,24,25
 253 267 253 267 289 249 c 1,26,27
 321 230 321 230 339.5 198.5 c 128,-1,28
 358 167 358 167 358 130 c 0,0,1
EndSplineSet
EndChar
StartChar: uni2086
Encoding: 8326 8326 101
Width: 391
Flags: W
LayerCount: 2
Fore
SplineSet
353 112 m 0,0,1
 353 59 353 59 311 26 c 128,-1,2
 269 -7 269 -7 201 -7 c 0,3,4
 165 -7 165 -7 132 4.5 c 128,-1,5
 99 16 99 16 81 35 c 0,6,7
 38 78 38 78 38 159 c 0,8,9
 38 217 38 217 65.5 268 c 128,-1,10
 93 319 93 319 141 353 c 0,11,12
 201 396 201 396 283 396 c 2,13,-1
 293 396 l 1,14,-1
 293 318 l 1,15,-1
 284 318 l 2,16,17
 174 318 174 318 129 221 c 1,18,19
 168 232 168 232 201 232 c 0,20,21
 255 232 255 232 297 210 c 1,22,23
 323 194 323 194 338 168 c 128,-1,24
 353 142 353 142 353 112 c 0,0,1
277 113 m 256,25,26
 277 132 277 132 258 143 c 128,-1,27
 239 154 239 154 205 154 c 0,28,29
 166 154 166 154 150 146 c 1,30,31
 123 136 123 136 123 113 c 0,32,33
 123 94 123 94 145 82.5 c 128,-1,34
 167 71 167 71 203 71 c 0,35,36
 237 71 237 71 257 82.5 c 128,-1,37
 277 94 277 94 277 113 c 256,25,26
EndSplineSet
EndChar
StartChar: uni2087
Encoding: 8327 8327 102
Width: 361
Flags: W
LayerCount: 2
Fore
SplineSet
338 310 m 1,0,1
 293 265 293 265 264 209 c 0,2,3
 212 105 212 105 212 0 c 1,4,-1
 135 0 l 1,5,6
 135 170 135 170 234 313 c 1,7,-1
 23 313 l 1,8,-1
 23 389 l 1,9,-1
 338 389 l 1,10,-1
 338 310 l 1,0,1
EndSplineSet
EndChar
StartChar: uni2088
Encoding: 8328 8328 103
Width: 391
Flags: W
LayerCount: 2
Fore
SplineSet
353 123 m 0,0,1
 353 64 353 64 309 27 c 0,2,3
 268 -7 268 -7 198 -7 c 0,4,5
 109 -7 109 -7 68 42 c 0,6,7
 38 78 38 78 38 123 c 0,8,9
 38 177 38 177 79 215 c 1,10,11
 51 243 51 243 51 285 c 0,12,13
 51 336 51 336 92 366 c 128,-1,14
 133 396 133 396 198 396 c 128,-1,15
 263 396 263 396 302 366 c 128,-1,16
 341 336 341 336 341 285 c 0,17,18
 341 246 341 246 314 215 c 1,19,20
 353 179 353 179 353 123 c 0,0,1
265 287 m 0,21,22
 265 301 265 301 247 309.5 c 128,-1,23
 229 318 229 318 198 318 c 128,-1,24
 167 318 167 318 148 309.5 c 128,-1,25
 129 301 129 301 129 287 c 0,26,27
 129 271 129 271 148 262.5 c 128,-1,28
 167 254 167 254 198 254 c 256,29,30
 229 254 229 254 247 262.5 c 128,-1,31
 265 271 265 271 265 287 c 0,21,22
277 123 m 0,32,33
 277 175 277 175 198 175 c 0,34,35
 159 175 159 175 137.5 161.5 c 128,-1,36
 116 148 116 148 116 123 c 256,37,38
 116 98 116 98 138 84.5 c 128,-1,39
 160 71 160 71 198 71 c 0,40,41
 237 71 237 71 257 84.5 c 128,-1,42
 277 98 277 98 277 123 c 0,32,33
EndSplineSet
EndChar
StartChar: uni2089
Encoding: 8329 8329 104
Width: 391
Flags: W
LayerCount: 2
Fore
SplineSet
353 231 m 0,0,1
 353 171 353 171 327.5 120 c 128,-1,2
 302 69 302 69 254 37 c 0,3,4
 187 -7 187 -7 108 -7 c 2,5,-1
 97 -7 l 1,6,-1
 97 73 l 1,7,8
 103 71 103 71 107 71 c 0,9,10
 163 71 163 71 205.5 98 c 128,-1,11
 248 125 248 125 271 175 c 1,12,13
 229 159 229 159 195 159 c 0,14,15
 128 159 128 159 85 187 c 1,16,17
 64 202 64 202 51 227 c 128,-1,18
 38 252 38 252 38 277 c 0,19,20
 38 330 38 330 81.5 363 c 128,-1,21
 125 396 125 396 195 396 c 0,22,23
 275 396 275 396 315 353 c 1,24,25
 353 315 353 315 353 231 c 0,0,1
269 279 m 0,26,27
 269 297 269 297 249 308 c 128,-1,28
 229 319 229 319 193 319 c 0,29,30
 158 319 158 319 137.5 308 c 128,-1,31
 117 297 117 297 117 277 c 0,32,33
 117 237 117 237 193 237 c 256,34,35
 269 237 269 237 269 279 c 0,26,27
EndSplineSet
EndChar
StartChar: .notdef
Encoding: 65536 -1 0
Width: 450
Flags: W
LayerCount: 2
Fore
SplineSet
397 585 m 1,0,-1
 397 0 l 1,1,-1
 53 0 l 1,2,-1
 53 585 l 1,3,-1
 397 585 l 1,0,-1
104 534 m 1,4,-1
 104 51 l 1,5,-1
 346 51 l 1,6,-1
 346 534 l 1,7,-1
 104 534 l 1,4,-1
EndSplineSet
EndChar
